<?xml version="1.0" encoding="utf-8"?>
<!-- Generator: Adobe Illustrator 23.0.1, SVG Export Plug-In . SVG Version: 6.00 Build 0)  -->
<svg version="1.1" id="Layer_1" xmlns="http://www.w3.org/2000/svg" xmlns:xlink="http://www.w3.org/1999/xlink" x="0px" y="0px"
	 viewBox="0 0 719 169" style="enable-background:new 0 0 719 169;" xml:space="preserve">
<style type="text/css">
	.st0{fill-rule:evenodd;clip-rule:evenodd;fill:#006838;}
	.st1{fill:#006838;}
	.st2{fill:#231F20;}
</style>
<path class="st0" d="M109.32,114.46l-5.62-2.54l0.49-1.08l4.4,1.99l0.92-2.04l1.22,0.55L109.32,114.46z M104.13,118.34
	c-0.87-0.5-1.45-1.08-1.75-1.73c-0.29-0.65-0.26-1.29,0.09-1.9c0.36-0.62,0.89-0.96,1.61-1.03c0.72-0.07,1.51,0.15,2.37,0.65
	c0.87,0.5,1.45,1.08,1.74,1.74c0.29,0.66,0.26,1.29-0.1,1.91c-0.36,0.61-0.89,0.95-1.6,1.02C105.79,119.06,105,118.84,104.13,118.34
	z M104.73,117.3c0.54,0.32,1.01,0.48,1.4,0.48c0.39,0,0.67-0.15,0.85-0.46c0.18-0.31,0.17-0.63-0.02-0.97
	c-0.19-0.34-0.56-0.66-1.1-0.98c-0.54-0.31-1.01-0.47-1.39-0.47c-0.39,0-0.67,0.15-0.85,0.46c-0.18,0.31-0.17,0.63,0.02,0.96
	C103.82,116.66,104.19,116.99,104.73,117.3z M101.73,123.4c-0.85-0.54-1.41-1.13-1.68-1.8c-0.27-0.66-0.22-1.29,0.16-1.89
	c0.38-0.6,0.93-0.92,1.65-0.97c0.72-0.04,1.5,0.2,2.35,0.74c0.85,0.53,1.4,1.13,1.67,1.8c0.27,0.67,0.21,1.3-0.17,1.9
	c-0.38,0.6-0.93,0.92-1.64,0.96C103.36,124.18,102.58,123.94,101.73,123.4z M102.37,122.39c0.53,0.34,0.99,0.51,1.38,0.53
	c0.38,0.02,0.67-0.13,0.86-0.43c0.19-0.3,0.2-0.63,0.02-0.97c-0.18-0.34-0.54-0.68-1.07-1.02c-0.53-0.33-0.99-0.51-1.38-0.53
	c-0.39-0.02-0.68,0.13-0.87,0.43c-0.19,0.3-0.2,0.62-0.01,0.96C101.48,121.71,101.84,122.05,102.37,122.39z M101.06,129.46
	l-4.94-3.7l0.71-0.95l1.75,1.31l0.97-1.3l-1.75-1.31l0.71-0.95l4.94,3.7l-0.71,0.95l-2.08-1.56l-0.97,1.29l2.08,1.56L101.06,129.46z
	 M97.95,129.24c0.51,0.54,0.81,1.08,0.88,1.62c0.08,0.54-0.06,1.02-0.43,1.45c-0.44,0.51-1.02,0.73-1.73,0.67
	c-0.72-0.07-1.44-0.42-2.17-1.04c-0.76-0.65-1.23-1.33-1.41-2.04c-0.18-0.71-0.04-1.33,0.42-1.87c0.36-0.43,0.81-0.65,1.34-0.66
	c0.53-0.01,1.07,0.18,1.62,0.59l-0.72,0.84c-0.26-0.15-0.5-0.22-0.71-0.2c-0.21,0.02-0.4,0.12-0.56,0.31
	c-0.22,0.25-0.25,0.56-0.11,0.94c0.14,0.37,0.44,0.76,0.9,1.15c0.46,0.39,0.87,0.63,1.25,0.71c0.37,0.08,0.67-0.01,0.88-0.26
	c0.17-0.2,0.25-0.42,0.22-0.65c-0.03-0.23-0.15-0.47-0.38-0.72L97.95,129.24z M90.54,135.49l0.97-0.59c0.19,0.3,0.39,0.49,0.61,0.56
	c0.22,0.08,0.45,0.04,0.69-0.11c0.2-0.13,0.34-0.27,0.39-0.43c0.06-0.16,0.04-0.32-0.06-0.49c-0.05-0.09-0.11-0.15-0.18-0.2
	c-0.07-0.05-0.14-0.08-0.2-0.08c-0.1-0.01-0.33,0.02-0.69,0.08c-0.35,0.06-0.66,0.1-0.92,0.11c-0.38,0.02-0.71-0.04-1.01-0.2
	c-0.3-0.16-0.55-0.4-0.75-0.73c-0.31-0.5-0.41-0.99-0.31-1.46c0.1-0.47,0.39-0.85,0.88-1.14c0.47-0.29,0.95-0.36,1.42-0.22
	c0.47,0.14,0.86,0.48,1.19,1.01l-0.95,0.58c-0.17-0.23-0.35-0.37-0.53-0.43c-0.18-0.05-0.37-0.01-0.57,0.11
	c-0.16,0.1-0.27,0.22-0.32,0.38c-0.05,0.15-0.03,0.3,0.06,0.43c0.14,0.23,0.52,0.31,1.13,0.22c0.11-0.02,0.19-0.03,0.25-0.04
	l0.05-0.01c0.63-0.09,1.05-0.1,1.26-0.04c0.21,0.06,0.41,0.17,0.59,0.31c0.18,0.15,0.34,0.34,0.48,0.56
	c0.32,0.53,0.42,1.03,0.29,1.5c-0.12,0.47-0.45,0.88-1,1.21c-0.51,0.31-1,0.39-1.46,0.24C91.39,136.49,90.96,136.11,90.54,135.49z
	 M41.16,133.73l4.19-4.53l0.87,0.8l-4.19,4.53L41.16,133.73z M36.95,129.73l4.49-4.23l0.81,0.87l-1.59,1.5l1.11,1.18l1.59-1.5
	l0.82,0.87l-4.49,4.23l-0.81-0.87l1.89-1.78l-1.11-1.18l-1.89,1.78L36.95,129.73z M34.13,126.18l4.89-3.77l0.73,0.94l-3.83,2.95
	l1.36,1.77l-1.06,0.82L34.13,126.18z M31.32,122.19l5.06-3.54l2.01,2.87l-1.03,0.72l-1.33-1.91l-0.89,0.63l1.22,1.74l-1.01,0.71
	l-1.22-1.74l-1.08,0.76l1.38,1.97l-1.03,0.72L31.32,122.19z M28.66,117.21l5.42-2.95l0.94,1.73c0.33,0.6,0.34,1.19,0.05,1.76
	c-0.29,0.58-0.88,1.1-1.75,1.58c-0.91,0.49-1.67,0.7-2.3,0.61c-0.63-0.09-1.13-0.46-1.49-1.13L28.66,117.21z M30.37,117.64
	l0.31,0.56c0.17,0.32,0.43,0.49,0.76,0.5c0.33,0.01,0.77-0.13,1.31-0.42c0.54-0.29,0.9-0.59,1.07-0.87
	c0.17-0.29,0.17-0.59-0.01-0.91l-0.31-0.56L30.37,117.64z M82.54,143.66c0.12,0.74,0.06,1.35-0.18,1.83
	c-0.24,0.49-0.63,0.81-1.17,0.96c-0.65,0.18-1.25,0.04-1.81-0.42c-0.56-0.46-0.96-1.16-1.21-2.08c-0.26-0.97-0.27-1.79-0.02-2.48
	c0.25-0.68,0.72-1.12,1.4-1.31c0.54-0.15,1.03-0.08,1.48,0.21c0.45,0.29,0.78,0.75,1.01,1.4l-1.07,0.29
	c-0.13-0.27-0.29-0.46-0.47-0.56c-0.19-0.11-0.4-0.13-0.64-0.06c-0.32,0.09-0.52,0.32-0.62,0.71c-0.09,0.39-0.06,0.87,0.1,1.46
	c0.16,0.58,0.37,1.01,0.63,1.28c0.26,0.27,0.55,0.37,0.87,0.28c0.26-0.07,0.44-0.21,0.55-0.42c0.11-0.21,0.14-0.48,0.09-0.81
	L82.54,143.66z M76.05,147.47l-1.06-6.08l1.16-0.2l1.06,6.08L76.05,147.47z M71.04,147.87l-0.32-6.16l1.19-0.06l0.25,4.83l2.23-0.12
	l0.07,1.34L71.04,147.87z M65.68,147.68l0.6-6.14l2.23,0.22c0.53,0.05,0.92,0.22,1.15,0.5c0.23,0.28,0.32,0.69,0.27,1.22
	c-0.03,0.33-0.11,0.6-0.25,0.8c-0.13,0.21-0.32,0.35-0.57,0.45c0.26,0.12,0.44,0.3,0.56,0.55c0.12,0.25,0.16,0.55,0.13,0.91
	c-0.03,0.34-0.12,0.65-0.27,0.92c-0.14,0.27-0.33,0.46-0.56,0.6c-0.15,0.09-0.33,0.15-0.54,0.17c-0.21,0.02-0.52,0.02-0.95-0.02
	L65.68,147.68z M66.93,146.57l0.89,0.09c0.28,0.03,0.48-0.01,0.61-0.1c0.12-0.09,0.2-0.26,0.22-0.51c0.02-0.22-0.02-0.4-0.11-0.52
	c-0.1-0.12-0.25-0.19-0.46-0.21l-1.01-0.1L66.93,146.57z M67.17,144.05l0.95,0.09c0.2,0.02,0.35-0.02,0.46-0.1
	c0.11-0.09,0.17-0.23,0.19-0.43c0.02-0.19-0.01-0.33-0.1-0.44c-0.08-0.1-0.21-0.16-0.39-0.18l-1-0.1L67.17,144.05z M60.96,140.89
	l1.15,0.17l-0.57,3.81c-0.06,0.42-0.05,0.73,0.05,0.92c0.09,0.2,0.28,0.31,0.55,0.36c0.27,0.04,0.48-0.02,0.62-0.18
	c0.14-0.16,0.25-0.45,0.31-0.87l0.57-3.81l1.16,0.17l-0.54,3.63c-0.08,0.51-0.17,0.91-0.29,1.21c-0.12,0.29-0.28,0.53-0.48,0.71
	c-0.21,0.19-0.45,0.32-0.7,0.4c-0.25,0.07-0.53,0.09-0.83,0.04c-0.3-0.04-0.56-0.14-0.78-0.28c-0.22-0.14-0.41-0.34-0.55-0.58
	c-0.14-0.24-0.23-0.52-0.26-0.83c-0.03-0.32-0.01-0.73,0.07-1.23L60.96,140.89z M54.86,145.65l1.33-6.03l2.06,0.45
	c0.52,0.12,0.89,0.36,1.09,0.75c0.2,0.38,0.24,0.88,0.1,1.49c-0.14,0.64-0.38,1.1-0.73,1.39c-0.34,0.28-0.77,0.37-1.28,0.26
	l-0.94-0.21l-0.47,2.15L54.86,145.65z M56.76,142.54l0.77,0.17c0.21,0.05,0.37,0.02,0.5-0.08c0.13-0.1,0.21-0.27,0.27-0.52
	c0.05-0.24,0.04-0.43-0.04-0.57c-0.08-0.14-0.22-0.23-0.43-0.28l-0.75-0.17L56.76,142.54z M103.16,60.93l2.32-5.72l3.07,1.25
	l-0.48,1.18l-1.98-0.8l-0.48,1.19l1.72,0.7l-0.48,1.18l-1.72-0.7l-0.88,2.16L103.16,60.93z M99.35,59.39l2.32-5.72l1.1,0.45
	l-1.82,4.48l2.07,0.84l-0.5,1.24L99.35,59.39z M95.17,57.69l2.32-5.72l3.25,1.32l-0.48,1.17l-2.16-0.88l-0.41,1.01l1.97,0.8
	l-0.47,1.14l-1.97-0.8l-0.5,1.22l2.23,0.9l-0.48,1.17L95.17,57.69z M91.49,53.98l1.05,0.43c-0.13,0.33-0.15,0.61-0.08,0.83
	c0.07,0.22,0.23,0.38,0.5,0.49c0.22,0.09,0.42,0.11,0.58,0.06c0.16-0.05,0.28-0.16,0.35-0.34c0.04-0.09,0.06-0.18,0.06-0.26
	c0-0.08-0.02-0.15-0.06-0.21c-0.06-0.09-0.21-0.26-0.47-0.5c-0.26-0.25-0.47-0.47-0.64-0.67c-0.24-0.29-0.39-0.6-0.44-0.93
	c-0.05-0.33,0-0.68,0.14-1.03c0.22-0.55,0.55-0.92,0.99-1.12c0.44-0.2,0.92-0.19,1.44,0.02c0.51,0.21,0.85,0.54,1.02,1.01
	c0.16,0.46,0.13,0.98-0.11,1.56l-1.03-0.42c0.09-0.28,0.09-0.5,0.03-0.68c-0.07-0.17-0.21-0.31-0.43-0.4
	c-0.18-0.07-0.34-0.08-0.49-0.03c-0.15,0.05-0.25,0.15-0.32,0.3c-0.1,0.25,0.06,0.6,0.5,1.04c0.08,0.08,0.14,0.14,0.18,0.18
	l0.04,0.04c0.45,0.46,0.71,0.78,0.78,0.98c0.08,0.21,0.11,0.42,0.1,0.66c-0.01,0.23-0.07,0.47-0.17,0.72
	c-0.23,0.57-0.58,0.95-1.03,1.13c-0.46,0.18-0.98,0.16-1.57-0.08c-0.56-0.23-0.91-0.57-1.06-1.03
	C91.19,55.26,91.24,54.68,91.49,53.98z M50.03,54.97l-2.94-5.42l3.08-1.67l0.6,1.11l-2.04,1.11l0.52,0.96l1.87-1.01l0.59,1.09
	l-1.87,1.01l0.63,1.16l2.11-1.15l0.6,1.11L50.03,54.97z M48.09,53.47c0.22,0.71,0.24,1.33,0.08,1.84c-0.17,0.51-0.51,0.88-1.03,1.11
	c-0.62,0.27-1.24,0.21-1.85-0.17c-0.61-0.38-1.11-1.01-1.49-1.9c-0.39-0.92-0.51-1.74-0.36-2.45c0.15-0.71,0.56-1.21,1.2-1.49
	c0.51-0.22,1.01-0.22,1.49,0c0.48,0.22,0.88,0.64,1.19,1.25l-1.02,0.44c-0.17-0.25-0.35-0.42-0.55-0.49
	c-0.2-0.08-0.41-0.07-0.64,0.03c-0.3,0.13-0.48,0.39-0.52,0.79c-0.04,0.4,0.06,0.88,0.3,1.43c0.24,0.55,0.51,0.95,0.8,1.18
	c0.3,0.24,0.6,0.29,0.9,0.16c0.24-0.11,0.41-0.27,0.48-0.49c0.08-0.22,0.07-0.49-0.02-0.81L48.09,53.47z M43.18,58.02l-2.4-5.68
	l1.09-0.46l2.4,5.68L43.18,58.02z M39.67,59.3l-3.52-5.31l1.18-0.41l1.65,2.79c0.03,0.05,0.07,0.12,0.14,0.23
	c0.2,0.33,0.36,0.61,0.48,0.84c-0.02-0.13-0.04-0.27-0.07-0.45c-0.02-0.17-0.05-0.4-0.09-0.68l-0.43-3.31l1.18-0.41l0.51,6.36
	L39.67,59.3z M33.98,61.04l-1.84-5.89l2.11-0.66c0.56-0.17,1.01-0.17,1.36,0.02c0.35,0.18,0.61,0.56,0.78,1.12
	c0.1,0.33,0.13,0.63,0.1,0.9c-0.04,0.27-0.15,0.52-0.34,0.76c0.22,0.04,0.4,0.13,0.53,0.28c0.13,0.14,0.27,0.43,0.42,0.85
	c0.04,0.12,0.1,0.28,0.17,0.48c0.16,0.47,0.31,0.73,0.44,0.77l0.06,0.2l-1.18,0.37c-0.12-0.19-0.24-0.46-0.37-0.82
	c-0.12-0.36-0.2-0.59-0.24-0.68c-0.09-0.22-0.2-0.37-0.33-0.45c-0.13-0.08-0.29-0.08-0.49-0.02l-0.75,0.23l0.69,2.21L33.98,61.04z
	 M34.05,57.33l0.84-0.26c0.23-0.07,0.38-0.18,0.45-0.32c0.07-0.14,0.07-0.34-0.01-0.58c-0.07-0.22-0.17-0.36-0.31-0.43
	c-0.14-0.07-0.31-0.08-0.52-0.01l-0.87,0.27L34.05,57.33z M29.72,62.58l-1.98-5.84l3.32-1.13l0.4,1.2l-2.2,0.75l0.35,1.03l2.01-0.68
	l0.4,1.17l-2.01,0.68L30.43,61l2.27-0.77l0.4,1.2L29.72,62.58z M24.41,61.7l1.11-0.26c0.09,0.34,0.22,0.58,0.41,0.72
	c0.18,0.14,0.41,0.18,0.69,0.12c0.23-0.05,0.4-0.15,0.51-0.28c0.1-0.13,0.14-0.29,0.09-0.48c-0.02-0.1-0.06-0.18-0.11-0.25
	c-0.05-0.07-0.1-0.12-0.17-0.14c-0.1-0.04-0.32-0.09-0.68-0.14c-0.35-0.05-0.66-0.11-0.91-0.18c-0.36-0.1-0.66-0.27-0.9-0.51
	c-0.23-0.24-0.39-0.55-0.48-0.93c-0.13-0.57-0.08-1.07,0.17-1.48s0.64-0.68,1.19-0.81c0.54-0.13,1.01-0.05,1.41,0.24
	c0.4,0.28,0.67,0.73,0.81,1.34l-1.08,0.25c-0.09-0.28-0.21-0.46-0.37-0.57c-0.15-0.1-0.35-0.13-0.58-0.08
	c-0.19,0.04-0.32,0.13-0.42,0.26c-0.09,0.13-0.12,0.27-0.08,0.43c0.06,0.27,0.4,0.45,1,0.56c0.11,0.02,0.19,0.04,0.25,0.04
	l0.05,0.01c0.63,0.12,1.03,0.23,1.21,0.35c0.18,0.12,0.33,0.29,0.46,0.48c0.12,0.2,0.22,0.43,0.28,0.69
	c0.14,0.6,0.07,1.11-0.19,1.52c-0.27,0.41-0.71,0.69-1.33,0.83c-0.59,0.14-1.07,0.06-1.46-0.23C24.91,62.92,24.62,62.42,24.41,61.7z
	 M78.65,43.97l3.06-5.36l3.05,1.74l-0.63,1.1l-2.02-1.15l-0.54,0.95l1.85,1.05l-0.61,1.07l-1.85-1.05l-0.66,1.15l2.09,1.19
	l-0.63,1.1L78.65,43.97z M73.72,42.37l2.01-5.83l2.09,0.72c0.55,0.19,0.91,0.46,1.08,0.82c0.17,0.35,0.16,0.81-0.03,1.36
	c-0.11,0.33-0.27,0.59-0.46,0.78c-0.19,0.2-0.43,0.33-0.72,0.41c0.16,0.16,0.25,0.34,0.27,0.54c0.02,0.2-0.04,0.51-0.17,0.93
	c-0.03,0.12-0.08,0.28-0.15,0.48c-0.15,0.48-0.18,0.77-0.1,0.88l-0.07,0.2l-1.17-0.4c0.01-0.23,0.08-0.52,0.19-0.88
	c0.12-0.36,0.19-0.59,0.21-0.69c0.06-0.23,0.06-0.42,0-0.56c-0.06-0.14-0.19-0.24-0.38-0.31l-0.75-0.26l-0.75,2.18L73.72,42.37z
	 M75.98,39.42l0.83,0.29c0.23,0.08,0.41,0.08,0.55,0c0.14-0.07,0.26-0.23,0.34-0.47c0.07-0.21,0.08-0.39,0.01-0.53
	c-0.07-0.14-0.21-0.25-0.42-0.32l-0.86-0.3L75.98,39.42z M68.35,38.85c0.05-1,0.3-1.78,0.75-2.34c0.44-0.56,1.02-0.82,1.73-0.79
	c0.71,0.04,1.26,0.36,1.65,0.96c0.39,0.61,0.56,1.41,0.5,2.41c-0.05,1-0.3,1.78-0.75,2.34c-0.45,0.56-1.03,0.82-1.74,0.79
	c-0.71-0.04-1.26-0.36-1.64-0.96C68.47,40.65,68.3,39.85,68.35,38.85z M69.55,38.91c-0.03,0.63,0.04,1.11,0.21,1.46
	c0.17,0.34,0.44,0.53,0.8,0.54c0.36,0.02,0.64-0.13,0.85-0.46c0.21-0.33,0.33-0.8,0.36-1.43c0.03-0.63-0.04-1.11-0.21-1.46
	c-0.18-0.35-0.44-0.53-0.8-0.55c-0.36-0.02-0.64,0.13-0.85,0.46C69.71,37.81,69.59,38.28,69.55,38.91z M64.65,42.33l-0.66-6.14
	l3.29-0.36l0.14,1.27l-2.13,0.23l0.14,1.27l1.85-0.2l0.14,1.27l-1.84,0.2l0.25,2.32L64.65,42.33z M60.18,43.73l-2.32-5.72l3.25-1.32
	l0.47,1.17l-2.16,0.87l0.41,1.01l1.97-0.8l0.46,1.14l-1.97,0.8l0.5,1.22l2.23-0.9l0.47,1.17L60.18,43.73z M55.87,45.87l-3.04-5.37
	l1.95-1.1c0.47-0.27,0.88-0.35,1.23-0.25c0.35,0.1,0.66,0.38,0.92,0.85c0.16,0.29,0.25,0.55,0.26,0.8c0.01,0.25-0.06,0.48-0.21,0.69
	c0.28-0.05,0.54-0.01,0.78,0.13c0.24,0.14,0.45,0.36,0.63,0.67c0.17,0.3,0.27,0.6,0.31,0.91c0.03,0.3,0,0.57-0.11,0.81
	c-0.07,0.16-0.19,0.31-0.34,0.45c-0.16,0.14-0.42,0.32-0.79,0.52L55.87,45.87z M56.25,44.24l0.78-0.44
	c0.25-0.14,0.39-0.28,0.44-0.43c0.05-0.15,0.01-0.33-0.11-0.54c-0.11-0.2-0.24-0.32-0.39-0.36c-0.15-0.04-0.32-0.02-0.5,0.09
	l-0.88,0.5L56.25,44.24z M55,42.04l0.83-0.47c0.17-0.1,0.28-0.22,0.32-0.35c0.04-0.13,0.01-0.29-0.09-0.46
	c-0.09-0.16-0.2-0.26-0.33-0.3c-0.13-0.04-0.27-0.01-0.43,0.08l-0.87,0.49L55,42.04z M30.93,108.62L30.93,108.62L30.93,108.62
	l-0.84,0.66l-1.11-0.71l-0.04,0l0-0.03l-4.83-3.1c-0.09,3.66,1.07,12.68,7.77,22.5c6.7,9.82,15.45,13.13,15.45,13.13l4.73-10.36
	c0,0-6.79-4.46-10.98-10.45c-4.2-5.98-5.18-15.54-5.18-15.54L30.93,108.62z M107.19,108.62L107.19,108.62L107.19,108.62l0.84,0.66
	l1.11-0.71l0.04,0l0-0.03l4.83-3.1c0.09,3.66-1.07,12.68-7.77,22.5c-6.7,9.82-15.45,13.13-15.45,13.13l-4.73-10.36
	c0,0,6.79-4.46,10.98-10.45c4.2-5.98,5.18-15.54,5.18-15.54L107.19,108.62z M67.71,138.42v0.08c-0.25,0-0.51-0.01-0.77-0.01
	c-8.34-0.21-14.93-3.5-14.93-3.5c-0.11-0.11-5.24,10.16-5.24,10.16s7.98,5.06,19.57,5.68v-0.05c1.03,0.07,2.07,0.12,3.11,0.12
	c12.83,0,21.88-5.75,21.88-5.75s-5.13-10.27-5.24-10.16c0,0-6.59,3.29-14.93,3.5C70.01,138.52,68.85,138.49,67.71,138.42z
	 M30.54,75.46l4.22-2.97l0.83,0.8l-5.03,3.54l0.01,1.3l4.19-2.95l0.83,0.8l-5,3.52l0.02,1.78l4.15-2.92l0.83,0.8l-4.97,3.5
	l0.03,2.46l4.11-2.89l0.83,0.79l-4.92,3.47l0.02,1.92l4.07-2.87l0.83,0.8l-4.88,3.44l0.02,1.71l4.03-2.84l0.83,0.8l-4.85,3.41
	l0.02,2.12l3.99-2.81l0.83,0.79l-4.81,3.38l0.02,1.78l3.95-2.79l0.83,0.8l-4.77,3.36l0.03,2.19l3.91-2.76l0.83,0.79l-4.73,3.33
	l0.02,2.12l3.66-3.1l0.83,0.8l-4.47,3.67l0.01,0.54l5.98-4.69l0.23,2.22c0.13,1.29,0.38,2.64,0.65,3.91
	c0.57,2.7,1.39,5.46,2.56,7.97c0.5,1.07,1.07,2.11,1.75,3.07c1.88,2.68,4.32,5.11,6.83,7.22c1.2,1,2.51,2.04,3.82,2.91l0.88,0.58
	l-1.6,3.5c0.2,0,0.4,0.04,0.58,0.14c1.27,0.63,2.8,1.17,4.15,1.59c3.1,0.97,6.36,1.6,9.6,1.74v-0.14c1.6,0.14,3.21,0.21,4.79,0.17
	c3.46-0.09,6.94-0.73,10.24-1.76c1.35-0.42,2.87-0.96,4.15-1.59c0.18-0.1,0.38-0.14,0.58-0.14l-1.6-3.5l0.88-0.58
	c1.31-0.86,2.63-1.9,3.82-2.91c2.5-2.11,4.95-4.54,6.83-7.22c0.68-0.96,1.25-2.01,1.75-3.07c1.17-2.51,1.99-5.27,2.56-7.97
	c0.27-1.27,0.52-2.62,0.65-3.91l0.23-2.22l5.98,4.69l0.01-0.54l-4.6-3.82l0.83-0.8l3.79,3.25l0.02-2.12l-4.73-3.33l0.83-0.79
	l3.91,2.76l0.03-2.19l-4.77-3.36l0.83-0.8l3.96,2.79l0.02-1.78l-4.81-3.38l0.83-0.79l3.99,2.81l0.03-2.12l-4.85-3.41l0.83-0.8
	l4.03,2.84l0.02-1.71l-4.88-3.44l0.83-0.8l4.07,2.87l0.02-1.92l-4.92-3.47l0.83-0.79l4.11,2.89l0.03-2.46l-4.97-3.5l0.83-0.8
	l4.15,2.92l0.02-1.78l-5-3.52l0.83-0.8l4.19,2.95l0.01-1.3l-5.03-3.54l0.83-0.8l4.22,2.97l0.02-0.67l2.08-4.12l0.94,0.77l-1.85,3.63
	l0.01,0.29l4.02-3l0.86,0.78l-4.86,3.63l0.01,1.26l3.99-2.98l0.86,0.78l-4.83,3.6l0.02,1.74l3.95-2.95l0.86,0.78l-4.79,3.58
	l0.03,2.42l3.9-2.91l0.86,0.78l-4.74,3.54l0.02,1.88l3.86-2.88l0.86,0.78l-4.7,3.51l0.02,1.67l3.82-2.86l0.86,0.78l-4.67,3.48
	l0.02,2.08l3.78-2.83l0.86,0.78l-4.62,3.45l0.02,1.74l3.74-2.8l0.86,0.78l-4.59,3.42l0.03,2.15l3.7-2.76l0.86,0.78l-4.54,3.39
	l0.03,2.08l3.66-2.73l0.86,0.78l-4.5,3.36l0.01,0.65l6.03-3.87l0.05,2.19c0.07,3.02-0.57,6.42-1.39,9.31
	c-1.4,4.96-3.7,9.67-6.6,13.92c-2.82,4.13-6.4,7.75-10.53,10.56c-1.24,0.84-2.54,1.62-3.88,2.29c-0.51,0.26-1.06,0.52-1.6,0.72
	c0.4,0.8,0.8,1.59,1.2,2.39l0.5,1l-0.94,0.6c-0.55,0.35-1.16,0.67-1.74,0.97c-1.5,0.77-3.06,1.45-4.65,2.03
	c-5.15,1.91-10.66,2.93-16.16,2.93c-0.58,0-1.16-0.01-1.75-0.04v0.03c-5.18-0.11-10.36-1.12-15.21-2.92
	c-1.58-0.59-3.14-1.26-4.65-2.03c-0.58-0.3-1.19-0.62-1.74-0.97l-0.94-0.6l0.5-1c0.4-0.8,0.8-1.59,1.2-2.39
	c-0.54-0.21-1.09-0.47-1.6-0.72c-1.34-0.67-2.64-1.45-3.88-2.29c-4.13-2.81-7.72-6.43-10.53-10.56c-2.9-4.25-5.19-8.96-6.6-13.92
	c-0.82-2.89-1.46-6.29-1.39-9.31l0.05-2.19l6.03,3.87l0.01-0.65l-4.5-3.36l0.86-0.78l3.66,2.73l0.03-2.08l-4.54-3.39l0.86-0.78
	l3.7,2.76l0.03-2.15l-4.59-3.42l0.86-0.78l3.74,2.8l0.02-1.74l-4.62-3.45l0.86-0.78l3.78,2.83l0.02-2.08l-4.67-3.48l0.86-0.78
	l3.82,2.86l0.02-1.67l-4.7-3.51l0.86-0.78l3.86,2.88l0.02-1.88l-4.74-3.54l0.86-0.78l3.9,2.91l0.03-2.42l-4.79-3.58l0.86-0.78
	l3.95,2.95l0.02-1.74l-4.83-3.6l0.86-0.78l3.99,2.98l0.02-1.26l-4.86-3.63l0.86-0.78l4.02,3l0.01-0.29l-1.85-3.63l0.94-0.77
	l2.08,4.12L30.54,75.46z M44.44,65.86l-0.03-1.16l-4.73,0.12l0.03,1.16L44.44,65.86z M44.61,67.69l-0.12-1.15l-4.71,0.48l0.12,1.15
	L44.61,67.69z M44.93,69.51l-0.21-1.14l-4.66,0.84l0.21,1.14L44.93,69.51z M45.38,71.3l-0.29-1.12l-4.58,1.2l0.29,1.12L45.38,71.3z
	 M45.97,73.04l-0.38-1.09l-4.47,1.55l0.38,1.09L45.97,73.04z M46.7,74.74l-0.46-1.06l-4.34,1.89l0.46,1.06L46.7,74.74z M47.55,76.38
	l-0.54-1.02l-4.18,2.22l0.54,1.02L47.55,76.38z M48.53,77.94l-0.62-0.98l-4,2.54l0.62,0.98L48.53,77.94z M49.62,79.42l-0.69-0.92
	l-3.79,2.84l0.69,0.92L49.62,79.42z M50.83,80.82l-0.76-0.87l-3.56,3.12l0.76,0.87L50.83,80.82z M52.14,82.12l-0.83-0.81l-3.31,3.39
	l0.83,0.81L52.14,82.12z M53.55,83.31l-0.89-0.74l-3.04,3.63l0.89,0.74L53.55,83.31z M55.04,84.39l-0.94-0.67l-2.75,3.86l0.94,0.67
	L55.04,84.39z M56.62,85.35l-0.99-0.59l-2.44,4.06l0.99,0.6L56.62,85.35z M58.26,86.19l-1.03-0.52l-2.12,4.23l1.03,0.52L58.26,86.19
	z M59.96,86.9l-1.07-0.44l-1.79,4.39l1.07,0.44L59.96,86.9z M61.72,87.47l-1.1-0.35l-1.44,4.51l1.1,0.35L61.72,87.47z M63.51,87.91
	l-1.13-0.27l-1.09,4.61l1.13,0.27L63.51,87.91z M92.71,65.86l0.03-1.16l4.73,0.12l-0.03,1.16L92.71,65.86z M92.53,67.69l0.12-1.15
	l4.71,0.48l-0.12,1.15L92.53,67.69z M92.22,69.51l0.21-1.14l4.66,0.84l-0.21,1.14L92.22,69.51z M91.76,71.3l0.29-1.12l4.58,1.2
	l-0.29,1.12L91.76,71.3z M91.17,73.04l0.38-1.09l4.47,1.55l-0.38,1.09L91.17,73.04z M90.45,74.74l0.46-1.06l4.34,1.89l-0.46,1.06
	L90.45,74.74z M89.59,76.38l0.54-1.02l4.18,2.22l-0.54,1.02L89.59,76.38z M88.62,77.94l0.62-0.98l4,2.54l-0.62,0.98L88.62,77.94z
	 M87.52,79.42l0.69-0.92L92,81.34l-0.69,0.92L87.52,79.42z M86.32,80.82l0.76-0.87l3.56,3.12l-0.76,0.87L86.32,80.82z M85,82.12
	l0.83-0.81l3.31,3.39l-0.83,0.81L85,82.12z M83.6,83.31l0.89-0.74l3.04,3.63l-0.89,0.74L83.6,83.31z M82.1,84.39l0.94-0.67
	l2.75,3.86l-0.94,0.67L82.1,84.39z M80.53,85.35l0.99-0.59l2.44,4.06l-0.99,0.6L80.53,85.35z M78.89,86.19l1.03-0.52l2.12,4.23
	L81,90.42L78.89,86.19z M77.18,86.9l1.07-0.44l1.79,4.39l-1.07,0.44L77.18,86.9z M75.43,87.47l1.1-0.35l1.44,4.51l-1.1,0.35
	L75.43,87.47z M73.64,87.91l1.13-0.27l1.09,4.61l-1.13,0.27L73.64,87.91z M70.58,114.66c-0.03,0-0.06,0.01-0.09,0.01
	c-2.17,0.19-4.57,0.16-6.73-0.05c-0.05,0-0.1-0.01-0.14-0.02l-0.02,0.04c-0.13,0.25-0.16,0.61-0.09,0.88
	c0.23,0.83,1.45,1.22,2.22,1.4c1.64,0.37,3.41,0.24,5.01-0.21c0.07-0.02,0.15-0.04,0.24-0.07c-0.08-0.06-0.15-0.12-0.21-0.19
	C70.3,115.94,70.34,115.27,70.58,114.66z M73.04,115.61c-0.27-0.47-0.48-0.98-0.64-1.5c-0.04,0.02-0.08,0.04-0.12,0.06l-0.17,0.21
	c-0.15,0.2-0.67,1.04-0.44,1.28c0.25,0.26,0.77,0.19,1.07,0.07L73.04,115.61z M71.5,113.24L71.5,113.24L71.5,113.24
	c0.23-0.09,0.45-0.19,0.64-0.3c-0.04-0.27-0.07-0.55-0.08-0.82c-0.01-0.11-0.02-0.24-0.03-0.37L72,111.75
	c-0.29,0.05-0.61,0.09-0.95,0.11c-0.21,0.45-0.22,1.04,0.26,1.33l0.12,0.07C71.45,113.25,71.47,113.24,71.5,113.24z M70,113.55
	c-0.32-0.49-0.39-1.09-0.25-1.66c-0.43,0-0.84-0.02-1.19-0.03c-1.79-0.06-3.61-0.23-5.38-0.52c-0.34-0.06-0.69-0.14-1.01-0.25
	c-0.01,0.35,0.03,0.76,0.12,1.06c0.22,0.79,0.72,1.23,1.59,1.32C65.84,113.66,68.01,113.7,70,113.55z M69.25,109
	c-0.42,0-0.85-0.02-1.26-0.04c-1.03-0.05-2.06-0.15-3.07-0.31c-1.09-0.17-2.26-0.42-3.27-0.86c-0.04-0.02-0.08-0.04-0.13-0.05
	c-0.13,0.32-0.2,0.73-0.16,1.04c0.13,0.94,1.18,1.27,2.02,1.41c1.71,0.28,3.48,0.45,5.21,0.51c0.24,0.01,0.48,0.01,0.71,0.02
	C69.02,110.19,69.01,109.57,69.25,109z M70.74,108.91l-0.18,0.22c-0.33,0.43-0.4,0.96,0.08,1.31l0.33,0.24
	c0.27-0.01,0.54-0.04,0.78-0.08l0.07-0.01c-0.13-0.54-0.32-1.06-0.57-1.41l-0.24-0.33C70.92,108.88,70.83,108.89,70.74,108.91z
	 M72.22,105.67l-0.24,0.2c-0.32,0.26-0.66,0.76-0.57,1.18c0.05,0.23,0.42,0.29,0.72,0.3c0.46-0.16,1.04-0.4,1.21-0.58l0.03-0.15
	c-0.09-0.17-0.18-0.34-0.27-0.51c-0.1-0.18-0.2-0.36-0.3-0.53C72.62,105.62,72.42,105.65,72.22,105.67z M70.49,105.82
	c-0.14,0-0.28,0.01-0.42,0.01c-2.44,0-5.87-0.34-8.12-1.28c-0.17-0.07-0.34-0.15-0.5-0.24c-0.15,0.28-0.26,0.61-0.3,0.88
	c-0.12,0.77,0.26,1.24,1,1.55c0.91,0.39,1.99,0.62,2.97,0.77c0.97,0.15,1.96,0.24,2.94,0.29c0.65,0.03,1.34,0.06,1.99,0.03
	c0.13-0.01,0.26-0.02,0.4-0.04c-0.1-0.15-0.18-0.32-0.22-0.51C70.12,106.78,70.24,106.27,70.49,105.82z M72.08,104.52
	c-1.71-2.19-3.92-3.01-7.2-2.84c-0.98,0.05-2.4,0.07-3.44-0.23l-0.02,0.03c-0.13,0.2-0.21,0.51-0.19,0.74
	c0.03,0.64,0.66,1.03,1.22,1.26c2.08,0.87,5.37,1.18,7.63,1.18C70.71,104.67,71.41,104.62,72.08,104.52z M59.58,97.19
	c-0.18,0.56-0.35,1.42-0.23,2c0.02,0.07,0.05,0.14,0.1,0.2c0.49,0.52,2.2,0.18,2.8-0.04c0.56-0.21,1.44-1.2,2.05-1.99
	C62.75,97.35,61.01,97.6,59.58,97.19z M71.74,69.13c0.55-0.44,1-2.25,1.13-2.87c0.07-0.33,0.39-0.55,0.73-0.48
	c0.33,0.07,0.55,0.39,0.48,0.72c-0.19,0.95-0.74,3.06-1.65,3.65c-0.29,0.18-0.67,0.1-0.85-0.18C71.39,69.69,71.47,69.32,71.74,69.13
	z M72.8,70.77c0.74-0.7,1.91-1.98,2.32-2.91c0.14-0.31,0.5-0.45,0.81-0.31c0.31,0.14,0.45,0.5,0.31,0.81
	c-0.49,1.1-1.73,2.47-2.6,3.3c-0.25,0.23-0.64,0.22-0.87-0.02C72.54,71.39,72.55,71,72.8,70.77z M66.48,69.13
	c0.27,0.19,0.35,0.56,0.17,0.84c-0.18,0.29-0.57,0.37-0.85,0.18c-0.91-0.59-1.46-2.7-1.65-3.65c-0.07-0.33,0.15-0.66,0.48-0.72
	c0.33-0.07,0.66,0.15,0.73,0.48C65.47,66.89,65.93,68.69,66.48,69.13z M64.57,71.66c-0.88-0.83-2.12-2.2-2.6-3.3
	c-0.14-0.31,0-0.68,0.31-0.81c0.31-0.14,0.68,0,0.81,0.31c0.41,0.93,1.58,2.21,2.32,2.91c0.25,0.23,0.26,0.63,0.02,0.87
	C65.21,71.89,64.81,71.9,64.57,71.66z M74.53,73.08c0.29-0.69,0.83-1.74,1.41-2.11c0.2-0.13,0.55-0.57,0.7-0.76
	c0.44-0.56,0.84-1.17,1.19-1.8c0.92-1.65,1.57-3.54,1.61-5.44c0.05-1.83-0.09-3.69-0.36-5.5c-0.01-0.08-0.02-0.16-0.04-0.23
	c-0.38,0.79-0.87,1.58-1.32,2.33c-0.57,0.94-1.15,1.88-1.74,2.8c-0.1,0.18-0.25,0.3-0.53,0.3c-0.23,0-0.43-0.12-0.54-0.32
	c-0.1-0.18-0.1-0.37-0.02-0.55c0.04-0.18,0.07-0.4,0.1-0.57c0.13-0.78,0.24-1.55,0.35-2.33c0.17-1.16,0.1-2.51,0.02-3.68
	c-0.04-0.61-0.1-1.23-0.17-1.85c-0.36,0.97-0.88,2-1.26,2.74c-0.72,1.43-1.51,2.85-2.33,4.23c-0.17,0.28-0.52,0.38-0.82,0.23
	c-0.29-0.15-0.41-0.5-0.28-0.8c0.09-0.19,0.16-0.58,0.19-0.79c0.14-0.93,0.09-1.95-0.02-2.88c-0.14-1.22-0.57-2.65-1.08-3.98
	c-0.15,0.68-0.33,1.34-0.52,1.91c-0.37,1.12-0.8,2.22-1.22,3.32c-0.55,1.43-1.12,2.86-1.7,4.28c-0.08,0.21-0.26,0.34-0.48,0.38
	c-0.22,0.03-0.43-0.05-0.57-0.22c-0.16-0.2-0.31-0.46-0.44-0.68c-0.45-0.77-0.85-1.6-1.23-2.41c-0.43-0.91-0.78-1.89-1.1-2.85
	c-0.01-0.03-0.02-0.06-0.03-0.08l0.17,6.93c0.01,0.28-0.17,0.53-0.44,0.61s-0.55-0.03-0.7-0.27l-3.28-5.38
	c-0.14,0.45-0.25,0.92-0.33,1.33c-0.39,1.88-0.42,3.86,0.03,5.73c0.12,0.5,0.27,0.99,0.44,1.47c0.63,1.77,1.57,3.48,2.61,5.04
	c0.41,0.62,0.86,1.27,1.33,1.86H74.53z M61.18,60.43l-0.22-9.11c-0.01-0.31,0.22-0.58,0.53-0.62s0.6,0.14,0.68,0.45
	c0.4,1.44,0.84,2.89,1.32,4.3c0.31,0.91,0.65,1.85,1.05,2.73c0.29,0.62,0.59,1.25,0.92,1.85c0.42-1.04,0.83-2.08,1.23-3.13
	c0.42-1.08,0.84-2.17,1.2-3.27c0.36-1.09,0.74-2.64,0.74-3.81c0-0.29,0.19-0.53,0.48-0.6c0.28-0.07,0.56,0.07,0.69,0.33
	c0.92,1.85,1.85,4.37,2.09,6.4c0.04,0.33,0.07,0.75,0.09,1.2c0.29-0.53,0.57-1.06,0.84-1.59c0.49-0.96,1.36-2.68,1.52-3.74
	c0.11-0.71,0.22-1.43,0.33-2.14c0.05-0.3,0.3-0.52,0.6-0.52c0.3,0,0.56,0.21,0.61,0.51c0.32,1.78,0.56,3.67,0.69,5.47
	c0.09,1.26,0.15,2.69-0.03,3.94c0,0.02-0.01,0.04-0.01,0.06c0.04-0.07,0.08-0.14,0.12-0.21c0.44-0.74,0.92-1.52,1.3-2.29
	c0.17-0.34,0.6-1.24,0.65-1.63c0.02-0.3,0.24-0.54,0.54-0.58c0.31-0.04,0.6,0.15,0.68,0.46c0.2,0.78,0.35,1.62,0.47,2.41
	c0.29,1.88,0.42,3.81,0.37,5.72c-0.05,2.11-0.76,4.2-1.78,6.04c-0.43,0.76-1.54,2.49-2.28,2.97c-0.33,0.21-0.83,1.28-0.98,1.66
	c-0.01,0.02-0.02,0.04-0.02,0.05v2.32H61.28V74c-0.54-0.67-1.06-1.4-1.52-2.11c-1.09-1.65-2.08-3.45-2.74-5.31
	c-0.19-0.52-0.35-1.05-0.48-1.6c-0.49-2.05-0.46-4.21-0.04-6.27c0.18-0.87,0.47-1.92,0.84-2.74c0.1-0.21,0.29-0.34,0.52-0.36
	c0.23-0.01,0.44,0.1,0.56,0.29L61.18,60.43z M60.59,78.1h4.01h7.67h4.01c-0.16,2.29-0.92,3.87-2.38,4.57h-1.63H64.6h-1.62
	C61.51,81.97,60.76,80.4,60.59,78.1z M63.01,84.45h11.07v2.16H63.01V84.45z M68.84,43.35c5.17-0.15,10.58,1.38,13.99,4.71l4.29-7.48
	c-5.33-4.12-11.29-6.29-17.68-6.33v0.02c-0.2-0.01-0.4-0.01-0.6-0.01c-0.09,0-0.18,0-0.26,0v-0.01c-6.51-0.03-12.58,2.15-18,6.33
	l4.3,7.48C58.28,44.73,63.68,43.21,68.84,43.35z M88.7,40.28l-1.16,2.01l0.16,0.1c0.96,0.63,1.96,1.23,2.96,1.81
	c2.31,1.36,4.68,2.64,7.09,3.81c1.22,0.59,2.56,1.07,3.84,1.51c1.63,0.55,3.28,1.05,4.93,1.53c3.8,1.09,7.69,2.08,11.55,2.95
	l1.65,0.3l-1.32,2.45c-0.37,0.64-0.75,1.28-1.14,1.91c-0.48,0.77-0.96,1.55-1.44,2.32l2.52,8.57l-2.11-0.59
	c-6.12-1.72-12.27-3.44-18.23-5.68c-0.19-0.07-0.38-0.14-0.57-0.22l0.04,0.7l-4.73,0.25l-0.06-1.15l3.73-0.2
	c-5.59-2.21-10.82-4.88-15.91-8.14l-0.98-0.63l2.74-4.69c-3.01-3.14-7.98-4.66-12.81-4.65v0.03c-0.2-0.01-0.4-0.02-0.6-0.02
	c-0.09,0-0.18,0-0.27,0.01v-0.02c-4.93-0.08-10.06,1.43-13.13,4.64l2.74,4.69l-0.98,0.63c-5.11,3.28-10.36,5.95-15.97,8.17
	l3.24,0.17l-0.06,1.15l-4.73-0.25l0.03-0.49c-5.95,2.24-12.11,3.95-18.22,5.67l-2.11,0.59l2.52-8.57c-0.49-0.77-0.97-1.54-1.44-2.32
	c-0.39-0.63-0.77-1.27-1.14-1.91l-1.32-2.45l1.65-0.3c3.86-0.87,7.75-1.86,11.55-2.95c1.65-0.47,3.3-0.97,4.93-1.53
	c1.29-0.44,2.62-0.92,3.84-1.51c2.41-1.17,4.78-2.45,7.09-3.81c0.99-0.58,1.99-1.18,2.96-1.81l0.16-0.1l-1.16-2.01
	c6.78-5.55,13.7-7.31,19.82-7.24C74.96,32.96,81.9,34.71,88.7,40.28z M117.89,55.18c0,0-15.07-3.36-20.68-6.07
	c-5.6-2.71-10.18-5.7-10.18-5.7l-3.76,6.44l-2.13,3.65c11.95,7.66,22.03,10.52,35.4,14.29l-2.05-7
	C114.5,60.78,117.7,55.63,117.89,55.18z M19.81,55.18c0,0,15.07-3.36,20.68-6.07c5.6-2.71,10.18-5.7,10.18-5.7l3.76,6.44l2.13,3.65
	c-11.95,7.66-22.03,10.52-35.4,14.29l2.05-7C23.21,60.78,20.01,55.63,19.81,55.18z M64.1,88.56l-0.65,4.15l1.14,0.18l0.53-3.39h0.9
	l-0.09,6.71l-0.68-0.01l-0.1-0.06l-0.04,0.06c-1.68-0.01-4.71,0.25-6.23-0.13l-0.22,0.44c-0.1,0.19-0.18,0.43-0.24,0.63
	c-0.23,0.77-0.45,1.48-0.27,2.29c0.22,1,1.16,1.35,2.18,1.38c0.01,0.02,0.03,0.04,0.05,0.05c-0.25,0.38-0.39,0.91-0.38,1.36
	c0.01,0.52,0.2,0.96,0.5,1.32c-0.27,0.43-0.49,1-0.56,1.48c-0.12,0.81,0.09,1.49,0.58,2.02l-0.02,0.04
	c-0.28,0.52-0.42,1.24-0.36,1.82c0.08,0.68,0.4,1.2,0.87,1.57l-0.03,0.19c-0.08,0.55-0.03,1.25,0.12,1.79
	c0.22,0.8,0.68,1.41,1.34,1.78c-0.21,0.46-0.26,1.05-0.14,1.52c0.34,1.37,1.83,2,3.14,2.3c0.07,0.02,0.15,0.03,0.22,0.05l-0.09,6.73
	c-1.32,0.94-2.19,2.48-2.19,4.22c0,2.85,2.31,5.17,5.17,5.17c2.85,0,5.17-2.31,5.17-5.17c0-1.75-0.86-3.29-2.19-4.22l-0.08-7.12
	c0.71-0.22,1.66-0.59,2.33-1.04c0.51,0.59,1.15,1.09,1.91,1.43c1.38,0.62,2.95,1.09,4.4,1.59c1.32,0.45,2.84,0.95,4.05,1.62
	c1.24,0.68,2.4,2.19,2.9,3.47c0.34,0.86,1.48,0.45,1.14-0.4c-0.6-1.53-1.95-3.25-3.44-4.07c-1.28-0.7-2.86-1.23-4.25-1.71
	c-1.4-0.48-2.94-0.94-4.28-1.54c-0.63-0.28-1.15-0.7-1.56-1.21l0.11-0.13l-0.46-0.34c-0.38-0.58-0.65-1.24-0.81-1.91l0.14-0.1
	l-0.23-0.29c-0.07-0.34-0.11-0.68-0.12-1.01c-0.05-1.04-0.35-2.62-1-3.51c0.04-0.01,0.07-0.02,0.11-0.04
	c0.77-0.04,1.01-0.32,1.6-0.74c0.55,1.11,1.08,2.23,1.66,3.33c0.96,1.81,3.08,4.27,5.44,4.27c0.97,0,0.95-1.16,0.02-1.16
	c-2.04-0.2-3.52-2.04-4.37-3.63c-0.88-1.65-1.63-3.36-2.53-5.01c-0.24-0.43-0.48-0.83-0.74-1.21l-0.02-0.09l-0.04,0.01
	c-2-2.84-4.67-3.96-8.58-3.76c-0.69,0.04-1.53,0.06-2.28-0.04c0.05-0.02,0.1-0.04,0.15-0.05c1.07-0.39,2.43-2.09,3.1-3.07
	c1.48,0.01,2.96,0.03,4.43,0.07c5.75,0.14,10.37,2.88,13.91,7.07c3.1,3.68,5.29,7.27,6.58,11.82c0.52,1.83,1.01,3.68,1.46,5.53
	c0.22,0.89,1.4,0.63,1.19-0.26c-0.45-1.86-0.94-3.73-1.47-5.57c-1.33-4.71-3.6-8.44-6.81-12.25c-3.56-4.23-8.2-7.05-13.87-7.46
	l-0.08-6.83h0.9l0.53,3.39l1.14-0.18l-0.7-4.48v-0.37H64.1V88.56z"/>
<path class="st0" d="M68.75-0.12l0.06-0.09l0.04,0.03l0.04-0.03l0.06,0.09L97.9,18.74l-0.65,2.2c-1.42,4.79-1.09,10.26,2.69,13.9
	c2.29,2.21,5.34,3.19,8.48,3.18c4.42-0.02,8.71-1.95,12.26-4.46l1.95-1.38l13.19,11.2l-1.83,2.33c-1.35,1.72-2.68,5.29-3.32,7.31
	c-2.56,8.16-2.94,17.46-2.39,25.93c0.53,8.1,0.86,16.28,0.67,24.4c-0.13,5.9-0.54,11.88-1.55,17.7c-1.36,7.8-3.83,15.29-9.07,21.38
	c-6.69,7.77-15.71,11.69-25.28,14.74c-3.44,1.1-7.01,1.75-10.45,2.86c-3.65,1.18-6.78,2.77-9.69,5.32l-4.01,3.89l-4.13-3.89
	c-2.91-2.54-6.04-4.14-9.69-5.32c-3.44-1.11-7-1.76-10.45-2.86c-9.57-3.05-18.59-6.97-25.28-14.74c-5.24-6.09-7.71-13.57-9.07-21.38
	c-1.01-5.81-1.42-11.8-1.55-17.7c-0.19-8.12,0.14-16.29,0.67-24.4c0.56-8.47,0.18-17.77-2.39-25.93C6.4,51,5.06,47.43,3.72,45.71
	l-1.83-2.33l13.19-11.2l1.95,1.38c3.55,2.51,7.84,4.44,12.26,4.46c3.14,0.01,6.19-0.97,8.48-3.18c3.78-3.64,4.11-9.11,2.69-13.9
	l-0.65-2.2L68.75-0.12z M127.54,44.44l-5.32-4.51c-4.15,2.54-8.87,4.24-13.77,4.26c-4.76,0.02-9.34-1.58-12.79-4.91
	c-4.9-4.72-6.16-11.42-4.88-17.83L68.85,7.17L46.94,21.45c1.28,6.4,0.02,13.11-4.88,17.83c-3.45,3.33-8.03,4.93-12.79,4.91
	c-4.91-0.02-9.62-1.72-13.78-4.26l-5.32,4.51c1.16,2.19,2.12,4.76,2.74,6.74c2.8,8.91,3.27,18.92,2.66,28.18
	c-0.52,7.92-0.84,15.91-0.66,23.85c0.13,5.58,0.5,11.27,1.46,16.78c1.16,6.65,3.2,13.22,7.67,18.41
	c5.87,6.81,14.1,10.22,22.48,12.89c3.44,1.1,7.01,1.75,10.47,2.87c4.46,1.44,8.32,3.44,11.86,6.54l0.01,0.01l0.01-0.01
	c3.54-3.1,7.4-5.11,11.86-6.54c3.46-1.11,7.02-1.77,10.47-2.87c8.38-2.67,16.61-6.07,22.48-12.89c4.47-5.19,6.51-11.77,7.67-18.41
	c0.96-5.51,1.33-11.2,1.46-16.78c0.18-7.94-0.14-15.93-0.66-23.85c-0.61-9.26-0.14-19.27,2.65-28.18
	C125.41,49.2,126.38,46.62,127.54,44.44z"/>
<g>
	<path class="st1" d="M159.96,30.43h13.65c11,0,18.6,7.55,18.6,17.4v0.1c0,9.86-7.6,17.51-18.6,17.51h-13.65V30.43z M173.62,58.48
		c6.3,0,10.55-4.25,10.55-10.45v-0.1c0-6.2-4.25-10.55-10.55-10.55h-5.95v21.1H173.62z"/>
	<path class="st1" d="M196.74,30.43h26.41v6.85h-18.76v7.1h16.5v6.85h-16.5v7.35h19v6.85h-26.66V30.43z"/>
	<path class="st1" d="M227.91,30.43h7.7v28.01h17.45v7h-25.16V30.43z"/>
	<path class="st1" d="M256.53,30.43h7.7v13.85h14.2V30.43h7.7v35.01h-7.7V51.38h-14.2v14.05h-7.7V30.43z"/>
	<path class="st1" d="M292.55,30.43h7.7v35.01h-7.7V30.43z"/>
	<path class="st1" d="M319.32,30.43h14.3c8.35,0,13.4,4.95,13.4,12.1v0.1c0,8.1-6.3,12.3-14.15,12.3h-5.85v10.5h-7.7V30.43z
		 M333.12,48.08c3.85,0,6.1-2.3,6.1-5.3v-0.1c0-3.45-2.4-5.3-6.25-5.3h-5.95v10.71H333.12z"/>
	<path class="st1" d="M349.83,50.43v-20h7.7v19.8c0,5.7,2.85,8.65,7.55,8.65c4.7,0,7.55-2.85,7.55-8.4V30.43h7.71v19.75
		c0,10.61-5.95,15.81-15.36,15.81C355.58,65.98,349.83,60.73,349.83,50.43z"/>
	<path class="st1" d="M385.86,30.43h16.25c4,0,7.15,1.1,9.15,3.1c1.6,1.6,2.4,3.55,2.4,5.95v0.1c0,3.95-2.1,6.15-4.6,7.55
		c4.05,1.55,6.55,3.9,6.55,8.6v0.1c0,6.4-5.2,9.6-13.1,9.6h-16.66V30.43z M400.46,44.58c3.4,0,5.55-1.09,5.55-3.7v-0.1
		c0-2.3-1.8-3.6-5.05-3.6h-7.6v7.4H400.46z M402.51,58.68c3.4,0,5.45-1.2,5.45-3.8v-0.1c0-2.35-1.75-3.81-5.7-3.81h-8.9v7.7H402.51z
		"/>
	<path class="st1" d="M419.63,30.43h7.7v28.01h17.45v7h-25.15V30.43z"/>
	<path class="st1" d="M448.59,30.43h7.71v35.01h-7.71V30.43z"/>
	<path class="st1" d="M461.15,48.03v-0.1c0-9.95,7.5-18.1,18.25-18.1c6.6,0,10.55,2.2,13.8,5.4l-4.9,5.65
		c-2.7-2.45-5.45-3.95-8.95-3.95c-5.9,0-10.15,4.9-10.15,10.9v0.1c0,6,4.15,11,10.15,11c4,0,6.45-1.6,9.2-4.1l4.9,4.95
		c-3.6,3.85-7.6,6.25-14.35,6.25C468.8,66.04,461.15,58.08,461.15,48.03z"/>
	<path class="st1" d="M507.53,60.34l4.55-5.45c3.15,2.6,6.45,4.25,10.45,4.25c3.15,0,5.05-1.25,5.05-3.3v-0.1
		c0-1.95-1.2-2.95-7.05-4.45c-7.05-1.8-11.6-3.75-11.6-10.71v-0.09c0-6.36,5.1-10.56,12.25-10.56c5.1,0,9.46,1.6,13.01,4.45l-4,5.8
		c-3.1-2.15-6.15-3.45-9.1-3.45c-2.95,0-4.5,1.35-4.5,3.05v0.1c0,2.3,1.5,3.05,7.55,4.6c7.1,1.85,11.1,4.4,11.1,10.5v0.1
		c0,6.95-5.3,10.85-12.85,10.85C517.08,65.93,511.73,64.08,507.53,60.34z"/>
	<path class="st1" d="M538.05,48.03v-0.1c0-9.95,7.5-18.1,18.26-18.1c6.6,0,10.55,2.2,13.8,5.4l-4.9,5.65
		c-2.7-2.45-5.45-3.95-8.95-3.95c-5.9,0-10.15,4.9-10.15,10.9v0.1c0,6,4.15,11,10.15,11c4,0,6.45-1.6,9.2-4.1l4.9,4.95
		c-3.6,3.85-7.6,6.25-14.35,6.25C545.7,66.04,538.05,58.08,538.05,48.03z"/>
	<path class="st1" d="M574.17,30.43h7.7v13.85h14.21V30.43h7.7v35.01h-7.7V51.38h-14.21v14.05h-7.7V30.43z"/>
	<path class="st1" d="M608.29,48.03v-0.1c0-9.95,7.85-18.1,18.65-18.1c10.8,0,18.55,8.05,18.55,18v0.1
		c0,9.95-7.85,18.11-18.65,18.11C616.04,66.04,608.29,57.99,608.29,48.03z M637.45,48.03v-0.1c0-6-4.4-11-10.6-11
		c-6.2,0-10.5,4.9-10.5,10.9v0.1c0,6,4.4,11,10.6,11C633.15,58.93,637.45,54.03,637.45,48.03z"/>
	<path class="st1" d="M648.47,48.03v-0.1c0-9.95,7.85-18.1,18.65-18.1c10.8,0,18.56,8.05,18.56,18v0.1
		c0,9.95-7.85,18.11-18.65,18.11C656.22,66.04,648.47,57.99,648.47,48.03z M677.63,48.03v-0.1c0-6-4.4-11-10.6-11
		c-6.21,0-10.5,4.9-10.5,10.9v0.1c0,6,4.4,11,10.6,11C673.33,58.93,677.63,54.03,677.63,48.03z"/>
	<path class="st1" d="M690.2,30.43h7.7v28.01h17.46v7H690.2V30.43z"/>
	<path class="st1" d="M335.85,82.38h7.7v15.3l14.21-15.3h9.3l-14.25,14.85l14.9,20.16h-9.25l-10.85-14.9l-4.05,4.2v10.7h-7.7V82.38z
		"/>
	<path class="st1" d="M365.72,99.98v-0.1c0-9.96,7.86-18.1,18.65-18.1c10.8,0,18.55,8.05,18.55,18v0.1
		c0,9.95-7.85,18.11-18.65,18.11C373.47,117.99,365.72,109.93,365.72,99.98z M394.88,99.98v-0.1c0-6-4.4-11.01-10.6-11.01
		c-6.2,0-10.5,4.9-10.5,10.9v0.1c0,6,4.4,11,10.6,11C390.58,110.88,394.88,105.98,394.88,99.98z"/>
	<path class="st1" d="M407.45,82.38h7.7v28.01h17.45v7h-25.15V82.38z"/>
	<path class="st1" d="M436.06,82.38h7.7v28.01h17.46v7h-25.15V82.38z"/>
	<path class="st1" d="M476.68,82.12h7.1l15.01,35.26h-8.05l-3.2-7.85h-14.8l-3.2,7.85h-7.85L476.68,82.12z M484.78,102.73
		l-4.65-11.35l-4.65,11.35H484.78z"/>
	<path class="st1" d="M501.85,82.38h8.3l9.2,14.8l9.2-14.8h8.3v35.01h-7.65V94.53l-9.85,14.95h-0.2l-9.75-14.8v22.71h-7.55V82.38z"
		/>
</g>
<g>
	<path class="st2" d="M168.69,130.96c-1.12,1.69-2.07,3.38-2.85,5.05c-0.78,1.67-1.41,3.3-1.9,4.89c-0.49,1.6-0.84,3.14-1.07,4.64
		c-0.23,1.49-0.34,2.91-0.34,4.24c0,0.55,0.02,1.12,0.05,1.72c0.03,0.6,0.09,1.21,0.15,1.82c0.06,0.61,0.15,1.22,0.26,1.82
		c0.11,0.6,0.23,1.16,0.37,1.68c0.03,0.13,0.04,0.23,0.04,0.32c0,0.09-0.04,0.16-0.12,0.22c-0.07,0.06-0.19,0.1-0.34,0.12
		c-0.15,0.03-0.36,0.04-0.62,0.04c-0.18,0-0.33,0-0.46-0.01c-0.13-0.01-0.23-0.03-0.32-0.06c-0.09-0.03-0.15-0.07-0.2-0.1
		c-0.05-0.04-0.08-0.09-0.1-0.14c-0.38-1.18-0.69-2.44-0.92-3.77c-0.23-1.33-0.34-2.77-0.34-4.31c0-1.33,0.1-2.7,0.31-4.13
		c0.21-1.43,0.56-2.91,1.05-4.44c0.49-1.53,1.15-3.12,1.96-4.76c0.81-1.64,1.82-3.32,3.02-5.05c0.04-0.07,0.09-0.13,0.16-0.19
		c0.07-0.05,0.15-0.09,0.26-0.13c0.11-0.04,0.24-0.06,0.41-0.08c0.16-0.02,0.36-0.02,0.6-0.02c0.24,0,0.43,0.01,0.57,0.04
		c0.14,0.03,0.25,0.07,0.33,0.13c0.08,0.05,0.11,0.11,0.11,0.2C168.8,130.78,168.77,130.86,168.69,130.96z"/>
	<path class="st2" d="M190.03,144.94c-0.25,1.26-0.63,2.35-1.17,3.3c-0.53,0.95-1.18,1.73-1.95,2.36c-0.77,0.62-1.64,1.1-2.61,1.42
		c-0.97,0.32-2.01,0.47-3.15,0.47c-1.19,0-2.23-0.17-3.11-0.48c-0.88-0.33-1.58-0.81-2.11-1.45c-0.53-0.65-0.88-1.44-1.04-2.4
		c-0.16-0.96-0.12-2.07,0.14-3.33l2.44-12.18c0.01-0.08,0.04-0.15,0.1-0.22c0.06-0.06,0.14-0.11,0.25-0.15
		c0.11-0.03,0.26-0.06,0.43-0.09c0.17-0.03,0.38-0.04,0.64-0.04c0.26,0,0.47,0.01,0.63,0.04c0.16,0.02,0.3,0.06,0.4,0.09
		c0.1,0.04,0.16,0.09,0.18,0.15c0.03,0.06,0.03,0.14,0.01,0.22l-2.42,12.15c-0.18,0.9-0.22,1.7-0.15,2.38
		c0.08,0.68,0.27,1.24,0.59,1.69c0.32,0.45,0.76,0.79,1.32,1.02c0.56,0.23,1.23,0.34,2.01,0.34c0.77,0,1.49-0.12,2.14-0.35
		c0.65-0.24,1.23-0.59,1.74-1.04c0.51-0.46,0.94-1.02,1.29-1.7c0.36-0.67,0.62-1.44,0.8-2.3l2.44-12.18
		c0.01-0.08,0.04-0.15,0.1-0.22c0.05-0.06,0.14-0.11,0.25-0.15c0.11-0.03,0.25-0.06,0.42-0.09c0.17-0.03,0.39-0.04,0.64-0.04
		c0.25,0,0.46,0.01,0.61,0.04c0.17,0.02,0.3,0.06,0.4,0.09c0.1,0.04,0.16,0.09,0.19,0.15c0.03,0.06,0.04,0.14,0.03,0.22
		L190.03,144.94z"/>
	<path class="st2" d="M205.93,141.01c0,0.36-0.02,0.72-0.06,1.06c-0.04,0.35-0.1,0.71-0.17,1.08l-1.74,8.66
		c-0.02,0.08-0.06,0.15-0.1,0.2c-0.05,0.06-0.12,0.11-0.23,0.15c-0.1,0.04-0.24,0.07-0.41,0.09c-0.17,0.02-0.38,0.03-0.63,0.03
		c-0.25,0-0.45,0-0.61-0.03c-0.16-0.02-0.29-0.05-0.37-0.09c-0.09-0.04-0.15-0.09-0.17-0.15c-0.02-0.05-0.03-0.12-0.02-0.2
		l1.71-8.57c0.07-0.32,0.12-0.63,0.15-0.93c0.03-0.3,0.04-0.56,0.04-0.79c0-0.63-0.14-1.13-0.4-1.52c-0.27-0.39-0.72-0.58-1.34-0.58
		c-0.55,0-1.1,0.16-1.68,0.47c-0.56,0.32-1.1,0.75-1.58,1.3c-0.49,0.55-0.92,1.2-1.31,1.96c-0.38,0.75-0.66,1.57-0.84,2.46
		l-1.23,6.2c-0.02,0.08-0.06,0.15-0.11,0.2c-0.05,0.06-0.13,0.11-0.23,0.15c-0.11,0.04-0.24,0.07-0.41,0.09
		c-0.17,0.02-0.38,0.03-0.63,0.03c-0.26,0-0.47,0-0.63-0.03c-0.16-0.02-0.28-0.05-0.37-0.09c-0.09-0.04-0.14-0.09-0.17-0.15
		c-0.03-0.05-0.03-0.12-0.01-0.2l2.79-13.89c0.01-0.07,0.04-0.14,0.09-0.2c0.04-0.06,0.12-0.11,0.22-0.15
		c0.1-0.04,0.22-0.07,0.37-0.08c0.15-0.02,0.33-0.03,0.53-0.03c0.22,0,0.4,0.01,0.53,0.03c0.14,0.01,0.25,0.04,0.33,0.08
		c0.07,0.04,0.12,0.09,0.15,0.15c0.02,0.06,0.03,0.13,0.01,0.2l-0.52,2.65c0.15-0.35,0.41-0.72,0.76-1.11
		c0.35-0.39,0.77-0.75,1.25-1.08c0.48-0.33,1.01-0.6,1.6-0.82c0.58-0.22,1.19-0.32,1.81-0.32c0.69,0,1.26,0.1,1.73,0.32
		c0.46,0.21,0.84,0.49,1.13,0.83c0.29,0.34,0.49,0.74,0.62,1.2C205.87,140.04,205.93,140.51,205.93,141.01z"/>
	<path class="st2" d="M218.88,151.81c-0.03,0.18-0.13,0.3-0.32,0.37c-0.18,0.07-0.49,0.1-0.92,0.1c-0.21,0-0.39,0-0.52-0.03
		c-0.14-0.02-0.24-0.05-0.33-0.09c-0.08-0.03-0.14-0.08-0.16-0.14c-0.03-0.06-0.03-0.13-0.01-0.22l0.49-2.59
		c-0.14,0.34-0.38,0.7-0.73,1.09c-0.35,0.38-0.76,0.74-1.24,1.06c-0.48,0.33-1.01,0.59-1.6,0.8c-0.58,0.21-1.18,0.32-1.79,0.32
		c-0.6,0-1.13-0.08-1.58-0.24c-0.45-0.16-0.82-0.37-1.12-0.64c-0.31-0.27-0.55-0.58-0.74-0.93c-0.19-0.36-0.34-0.72-0.45-1.09
		c-0.11-0.38-0.18-0.75-0.22-1.13c-0.04-0.38-0.05-0.73-0.05-1.05c0-0.59,0.06-1.26,0.17-2c0.11-0.74,0.29-1.48,0.54-2.23
		c0.25-0.74,0.56-1.47,0.95-2.19c0.38-0.71,0.85-1.35,1.39-1.89c0.55-0.55,1.17-1,1.89-1.33c0.71-0.34,1.52-0.51,2.42-0.51
		c0.45,0,0.86,0.05,1.25,0.14c0.39,0.1,0.74,0.23,1.06,0.4c0.32,0.17,0.61,0.37,0.88,0.61c0.27,0.24,0.51,0.48,0.72,0.74l1.57-7.86
		c0.01-0.07,0.04-0.14,0.09-0.21c0.05-0.07,0.13-0.12,0.24-0.15c0.1-0.04,0.23-0.07,0.4-0.1c0.16-0.02,0.37-0.04,0.63-0.04
		c0.25,0,0.45,0.01,0.61,0.04c0.16,0.03,0.29,0.06,0.38,0.1c0.09,0.03,0.15,0.09,0.18,0.15c0.03,0.06,0.03,0.13,0.01,0.21
		L218.88,151.81z M218.39,141.61c-0.48-0.71-1-1.25-1.56-1.62c-0.56-0.37-1.19-0.55-1.89-0.55c-0.54,0-1.03,0.13-1.47,0.38
		c-0.43,0.25-0.83,0.59-1.18,1.01c-0.35,0.42-0.65,0.91-0.9,1.45c-0.25,0.54-0.46,1.11-0.62,1.69c-0.17,0.58-0.29,1.15-0.37,1.72
		c-0.08,0.56-0.12,1.09-0.12,1.56c0,0.99,0.17,1.76,0.51,2.29c0.34,0.53,0.88,0.79,1.63,0.79c0.57,0,1.13-0.15,1.71-0.46
		c0.57-0.31,1.1-0.73,1.6-1.28c0.49-0.55,0.93-1.19,1.31-1.94c0.38-0.75,0.66-1.57,0.84-2.47L218.39,141.61z"/>
	<path class="st2" d="M235.58,140.78c0,0.71-0.17,1.35-0.5,1.91c-0.33,0.56-0.84,1.05-1.54,1.45c-0.69,0.4-1.59,0.71-2.68,0.93
		c-1.09,0.22-2.39,0.32-3.91,0.32h-1.64c-0.07,0.34-0.12,0.67-0.15,0.98c-0.03,0.32-0.04,0.62-0.04,0.9c0,1.03,0.25,1.81,0.76,2.36
		c0.51,0.54,1.33,0.81,2.48,0.81c0.66,0,1.25-0.05,1.77-0.14c0.52-0.1,0.98-0.2,1.37-0.32c0.38-0.11,0.7-0.22,0.95-0.32
		c0.25-0.09,0.42-0.15,0.51-0.15c0.09,0,0.16,0.04,0.21,0.1c0.04,0.07,0.07,0.16,0.07,0.29c0,0.1-0.01,0.22-0.03,0.37
		c-0.02,0.14-0.05,0.29-0.09,0.44c-0.04,0.15-0.09,0.29-0.16,0.42c-0.07,0.13-0.14,0.24-0.23,0.34c-0.13,0.12-0.34,0.24-0.66,0.36
		c-0.31,0.12-0.68,0.23-1.12,0.33c-0.43,0.1-0.91,0.18-1.42,0.24c-0.51,0.06-1.03,0.09-1.54,0.09c-0.91,0-1.71-0.1-2.4-0.31
		c-0.69-0.21-1.26-0.52-1.72-0.95c-0.46-0.43-0.79-0.96-1.03-1.6c-0.23-0.64-0.34-1.39-0.34-2.25c0-0.67,0.06-1.38,0.19-2.15
		c0.13-0.77,0.34-1.53,0.61-2.28c0.28-0.75,0.64-1.47,1.08-2.16c0.45-0.69,0.97-1.29,1.58-1.82c0.61-0.52,1.32-0.94,2.12-1.26
		c0.8-0.32,1.71-0.47,2.72-0.47c0.86,0,1.59,0.1,2.19,0.32c0.6,0.22,1.1,0.49,1.48,0.84c0.39,0.34,0.67,0.72,0.84,1.13
		C235.5,139.95,235.58,140.37,235.58,140.78z M232.98,141.01c0-0.52-0.21-0.95-0.62-1.27c-0.41-0.33-1-0.49-1.76-0.49
		c-0.67,0-1.26,0.12-1.77,0.34c-0.51,0.24-0.97,0.54-1.37,0.94c-0.4,0.39-0.74,0.84-1.02,1.36c-0.28,0.52-0.51,1.07-0.69,1.64h1.57
		c1.08,0,1.98-0.07,2.7-0.2c0.73-0.13,1.31-0.32,1.75-0.55c0.44-0.23,0.74-0.5,0.93-0.81C232.89,141.67,232.98,141.35,232.98,141.01
		z"/>
	<path class="st2" d="M246.76,137.95c0,0.04-0.01,0.12-0.03,0.24c-0.01,0.12-0.03,0.25-0.06,0.4c-0.02,0.16-0.05,0.32-0.09,0.48
		c-0.04,0.17-0.09,0.32-0.15,0.46c-0.06,0.14-0.12,0.25-0.19,0.34c-0.07,0.1-0.14,0.14-0.22,0.14c-0.08,0-0.17-0.02-0.27-0.06
		c-0.09-0.03-0.2-0.08-0.32-0.13c-0.12-0.05-0.26-0.1-0.41-0.13c-0.15-0.04-0.33-0.06-0.54-0.06c-0.35,0-0.75,0.15-1.21,0.45
		c-0.46,0.3-0.91,0.72-1.35,1.26c-0.44,0.53-0.84,1.16-1.21,1.9c-0.37,0.73-0.64,1.52-0.81,2.37l-1.22,6.18
		c-0.02,0.08-0.05,0.15-0.11,0.2c-0.05,0.06-0.13,0.11-0.23,0.15c-0.1,0.04-0.24,0.07-0.41,0.09c-0.17,0.02-0.38,0.03-0.63,0.03
		c-0.25,0-0.46,0-0.62-0.03c-0.16-0.02-0.28-0.05-0.37-0.09c-0.09-0.04-0.14-0.09-0.17-0.15c-0.03-0.05-0.03-0.12-0.01-0.2
		l2.76-13.89c0.01-0.07,0.04-0.14,0.09-0.2c0.05-0.06,0.13-0.11,0.23-0.15c0.11-0.04,0.23-0.07,0.38-0.08
		c0.15-0.02,0.33-0.03,0.53-0.03c0.22,0,0.4,0.01,0.53,0.03c0.14,0.01,0.25,0.04,0.33,0.08c0.07,0.04,0.13,0.09,0.14,0.15
		c0.02,0.06,0.03,0.13,0.02,0.2l-0.52,2.53c0.24-0.42,0.52-0.83,0.84-1.22c0.33-0.39,0.68-0.73,1.06-1.03
		c0.38-0.29,0.78-0.52,1.19-0.7c0.42-0.17,0.83-0.26,1.23-0.26c0.18,0,0.35,0.01,0.53,0.04c0.18,0.03,0.35,0.06,0.5,0.09
		c0.15,0.04,0.29,0.08,0.41,0.13c0.12,0.05,0.21,0.1,0.27,0.16C246.73,137.72,246.76,137.82,246.76,137.95z"/>
	<path class="st2" d="M261.5,138.09c0,0.09-0.01,0.19-0.02,0.3c-0.01,0.11-0.03,0.22-0.06,0.33c-0.03,0.11-0.07,0.22-0.13,0.34
		c-0.05,0.12-0.1,0.21-0.16,0.3c-0.05,0.09-0.12,0.15-0.19,0.21c-0.07,0.05-0.15,0.08-0.25,0.08h-3.55l-1.56,7.74
		c-0.04,0.22-0.08,0.46-0.11,0.73c-0.03,0.27-0.04,0.49-0.04,0.66c0,0.52,0.11,0.9,0.33,1.15c0.22,0.24,0.58,0.37,1.07,0.37
		c0.28,0,0.52-0.03,0.73-0.07c0.21-0.05,0.38-0.09,0.54-0.15c0.15-0.05,0.28-0.1,0.39-0.15c0.11-0.04,0.21-0.07,0.29-0.07
		c0.08,0,0.15,0.03,0.19,0.09c0.05,0.05,0.07,0.16,0.07,0.32c0,0.13-0.01,0.28-0.04,0.44c-0.03,0.16-0.06,0.32-0.1,0.47
		c-0.04,0.15-0.09,0.29-0.15,0.42c-0.06,0.12-0.13,0.22-0.2,0.29c-0.08,0.07-0.21,0.14-0.37,0.22c-0.16,0.07-0.35,0.14-0.57,0.19
		c-0.22,0.05-0.45,0.1-0.69,0.13c-0.24,0.03-0.48,0.05-0.72,0.05c-0.57,0-1.08-0.06-1.49-0.18c-0.42-0.13-0.78-0.32-1.06-0.58
		c-0.29-0.26-0.51-0.59-0.64-0.98c-0.14-0.4-0.21-0.88-0.21-1.43c0-0.12,0.01-0.26,0.02-0.41c0.01-0.15,0.03-0.31,0.05-0.47
		c0.03-0.16,0.05-0.33,0.08-0.49c0.02-0.17,0.05-0.32,0.08-0.46l1.56-7.8h-1.93c-0.11,0-0.2-0.04-0.26-0.1
		c-0.06-0.07-0.09-0.2-0.09-0.4c0-0.14,0.01-0.31,0.04-0.5c0.03-0.19,0.08-0.37,0.14-0.53c0.06-0.16,0.14-0.3,0.24-0.42
		c0.09-0.12,0.21-0.17,0.34-0.17h1.94l0.67-3.3c0.01-0.07,0.04-0.14,0.1-0.2c0.06-0.06,0.13-0.12,0.24-0.16
		c0.1-0.05,0.24-0.08,0.41-0.11c0.17-0.02,0.38-0.03,0.62-0.03c0.24,0,0.45,0.01,0.61,0.03c0.16,0.02,0.28,0.06,0.37,0.11
		c0.09,0.04,0.14,0.1,0.17,0.16c0.03,0.06,0.04,0.13,0.03,0.2l-0.66,3.3h3.55c0.15,0,0.25,0.05,0.31,0.17
		C261.48,137.82,261.5,137.95,261.5,138.09z"/>
	<path class="st2" d="M272.48,151.81c-0.02,0.08-0.05,0.15-0.1,0.2c-0.05,0.06-0.13,0.11-0.24,0.15c-0.11,0.04-0.24,0.07-0.41,0.09
		c-0.17,0.02-0.38,0.03-0.64,0.03c-0.24,0-0.45,0-0.6-0.03c-0.16-0.02-0.28-0.05-0.37-0.09c-0.09-0.04-0.14-0.09-0.17-0.15
		c-0.02-0.05-0.03-0.12-0.02-0.2l1.71-8.57c0.05-0.27,0.09-0.57,0.13-0.91c0.04-0.33,0.05-0.62,0.05-0.87c0-0.3-0.03-0.57-0.09-0.82
		c-0.06-0.25-0.16-0.46-0.3-0.64c-0.14-0.18-0.32-0.33-0.54-0.43c-0.22-0.1-0.49-0.15-0.81-0.15c-0.54,0-1.1,0.16-1.67,0.48
		c-0.57,0.32-1.1,0.76-1.59,1.32c-0.49,0.56-0.92,1.22-1.31,1.99c-0.38,0.76-0.67,1.57-0.84,2.45l-1.23,6.15
		c-0.02,0.08-0.06,0.15-0.11,0.2c-0.05,0.06-0.13,0.11-0.23,0.15c-0.1,0.04-0.24,0.07-0.41,0.09c-0.17,0.02-0.38,0.03-0.63,0.03
		c-0.26,0-0.46,0-0.62-0.03c-0.16-0.02-0.28-0.05-0.37-0.09c-0.08-0.04-0.14-0.09-0.17-0.15c-0.03-0.05-0.03-0.12-0.01-0.2l4.1-20.6
		c0.02-0.08,0.05-0.15,0.1-0.22c0.05-0.06,0.13-0.11,0.23-0.15c0.11-0.04,0.25-0.07,0.42-0.09c0.17-0.02,0.38-0.03,0.64-0.03
		c0.24,0,0.45,0.01,0.61,0.03c0.16,0.02,0.28,0.05,0.37,0.09c0.09,0.04,0.14,0.09,0.16,0.15c0.02,0.06,0.03,0.13,0.02,0.22
		l-1.23,6.27c-0.05,0.27-0.11,0.54-0.19,0.82c-0.07,0.28-0.15,0.55-0.22,0.82c-0.08,0.27-0.15,0.53-0.23,0.78
		c-0.08,0.25-0.15,0.46-0.21,0.65c0.16-0.36,0.42-0.73,0.77-1.12c0.35-0.38,0.76-0.74,1.23-1.06c0.48-0.33,1-0.59,1.57-0.81
		c0.57-0.22,1.16-0.32,1.76-0.32c0.66,0,1.22,0.09,1.68,0.28c0.46,0.19,0.84,0.46,1.13,0.79c0.29,0.33,0.51,0.73,0.64,1.19
		c0.14,0.46,0.2,0.96,0.2,1.49c0,0.37-0.02,0.73-0.06,1.08c-0.04,0.35-0.1,0.7-0.17,1.07L272.48,151.81z"/>
	<path class="st2" d="M289.12,140.78c0,0.71-0.17,1.35-0.5,1.91c-0.33,0.56-0.84,1.05-1.54,1.45c-0.69,0.4-1.59,0.71-2.68,0.93
		c-1.09,0.22-2.39,0.32-3.91,0.32h-1.64c-0.07,0.34-0.12,0.67-0.15,0.98c-0.03,0.32-0.04,0.62-0.04,0.9c0,1.03,0.25,1.81,0.76,2.36
		c0.51,0.54,1.33,0.81,2.48,0.81c0.66,0,1.25-0.05,1.77-0.14c0.52-0.1,0.98-0.2,1.37-0.32c0.38-0.11,0.7-0.22,0.95-0.32
		c0.25-0.09,0.41-0.15,0.51-0.15c0.09,0,0.16,0.04,0.21,0.1c0.04,0.07,0.07,0.16,0.07,0.29c0,0.1-0.01,0.22-0.03,0.37
		c-0.02,0.14-0.05,0.29-0.09,0.44c-0.04,0.15-0.09,0.29-0.16,0.42c-0.07,0.13-0.14,0.24-0.23,0.34c-0.13,0.12-0.34,0.24-0.66,0.36
		c-0.31,0.12-0.68,0.23-1.12,0.33c-0.43,0.1-0.91,0.18-1.42,0.24c-0.51,0.06-1.03,0.09-1.54,0.09c-0.91,0-1.71-0.1-2.4-0.31
		c-0.69-0.21-1.26-0.52-1.72-0.95c-0.46-0.43-0.79-0.96-1.03-1.6c-0.23-0.64-0.34-1.39-0.34-2.25c0-0.67,0.06-1.38,0.19-2.15
		c0.13-0.77,0.33-1.53,0.61-2.28c0.28-0.75,0.64-1.47,1.08-2.16c0.44-0.69,0.97-1.29,1.58-1.82c0.61-0.52,1.32-0.94,2.12-1.26
		c0.8-0.32,1.71-0.47,2.71-0.47c0.86,0,1.6,0.1,2.2,0.32c0.6,0.22,1.1,0.49,1.48,0.84c0.39,0.34,0.67,0.72,0.84,1.13
		C289.03,139.95,289.12,140.37,289.12,140.78z M286.51,141.01c0-0.52-0.21-0.95-0.62-1.27c-0.41-0.33-1-0.49-1.76-0.49
		c-0.67,0-1.26,0.12-1.77,0.34c-0.51,0.24-0.97,0.54-1.36,0.94c-0.4,0.39-0.74,0.84-1.02,1.36c-0.28,0.52-0.51,1.07-0.69,1.64h1.57
		c1.08,0,1.98-0.07,2.71-0.2c0.73-0.13,1.31-0.32,1.75-0.55c0.43-0.23,0.74-0.5,0.92-0.81
		C286.42,141.67,286.51,141.35,286.51,141.01z"/>
	<path class="st2" d="M307.06,151.81c-0.04,0.18-0.15,0.3-0.34,0.37c-0.19,0.07-0.49,0.1-0.92,0.1c-0.21,0-0.37,0-0.51-0.03
		c-0.14-0.02-0.24-0.05-0.33-0.09c-0.08-0.03-0.14-0.08-0.17-0.14c-0.03-0.06-0.03-0.13,0-0.22l0.51-2.62
		c-0.13,0.33-0.37,0.69-0.73,1.08c-0.35,0.39-0.76,0.75-1.24,1.08c-0.48,0.33-1.01,0.6-1.6,0.82c-0.59,0.21-1.18,0.32-1.79,0.32
		c-0.82,0-1.5-0.15-2.04-0.43c-0.54-0.29-0.97-0.67-1.29-1.14c-0.32-0.47-0.54-1.01-0.65-1.6c-0.12-0.59-0.18-1.21-0.18-1.84
		c0-0.57,0.05-1.22,0.16-1.95c0.11-0.73,0.28-1.48,0.52-2.24c0.24-0.76,0.55-1.5,0.94-2.22c0.38-0.72,0.85-1.36,1.39-1.93
		c0.54-0.57,1.18-1.03,1.9-1.37c0.72-0.35,1.54-0.52,2.45-0.52c0.91,0,1.7,0.18,2.35,0.55c0.65,0.37,1.24,0.88,1.75,1.52l0.29-1.4
		c0.04-0.16,0.16-0.28,0.35-0.36c0.2-0.07,0.5-0.1,0.91-0.1c0.2,0,0.38,0.01,0.51,0.03c0.14,0.01,0.25,0.04,0.33,0.08
		c0.08,0.04,0.14,0.09,0.16,0.15c0.02,0.06,0.03,0.13,0.02,0.2L307.06,151.81z M306.58,141.56c-0.48-0.71-1-1.24-1.56-1.6
		c-0.56-0.35-1.19-0.53-1.89-0.53c-0.56,0-1.06,0.13-1.51,0.4c-0.44,0.26-0.84,0.6-1.18,1.04c-0.34,0.43-0.64,0.92-0.89,1.47
		c-0.25,0.55-0.46,1.12-0.62,1.71c-0.16,0.58-0.28,1.16-0.36,1.72c-0.07,0.56-0.11,1.07-0.11,1.53c0,0.36,0.03,0.72,0.08,1.07
		c0.06,0.36,0.17,0.68,0.33,0.97c0.16,0.29,0.38,0.53,0.66,0.71c0.28,0.18,0.64,0.27,1.08,0.27c0.57,0,1.14-0.15,1.7-0.47
		c0.57-0.32,1.11-0.75,1.6-1.3c0.49-0.55,0.93-1.21,1.31-1.96c0.38-0.75,0.66-1.58,0.85-2.48L306.58,141.56z"/>
	<path class="st2" d="M323.78,140.78c0,0.71-0.17,1.35-0.49,1.91c-0.33,0.56-0.85,1.05-1.54,1.45c-0.7,0.4-1.6,0.71-2.68,0.93
		c-1.09,0.22-2.4,0.32-3.92,0.32h-1.63c-0.07,0.34-0.13,0.67-0.15,0.98c-0.02,0.32-0.04,0.62-0.04,0.9c0,1.03,0.25,1.81,0.76,2.36
		c0.51,0.54,1.33,0.81,2.48,0.81c0.66,0,1.25-0.05,1.77-0.14c0.52-0.1,0.98-0.2,1.37-0.32c0.38-0.11,0.7-0.22,0.95-0.32
		c0.25-0.09,0.42-0.15,0.51-0.15c0.09,0,0.16,0.04,0.21,0.1c0.05,0.07,0.07,0.16,0.07,0.29c0,0.1-0.01,0.22-0.03,0.37
		c-0.02,0.14-0.05,0.29-0.09,0.44c-0.04,0.15-0.1,0.29-0.17,0.42c-0.06,0.13-0.14,0.24-0.22,0.34c-0.13,0.12-0.34,0.24-0.66,0.36
		c-0.31,0.12-0.68,0.23-1.12,0.33c-0.43,0.1-0.91,0.18-1.42,0.24c-0.52,0.06-1.03,0.09-1.54,0.09c-0.92,0-1.72-0.1-2.41-0.31
		c-0.69-0.21-1.26-0.52-1.72-0.95c-0.46-0.43-0.8-0.96-1.02-1.6c-0.23-0.64-0.34-1.39-0.34-2.25c0-0.67,0.06-1.38,0.19-2.15
		c0.13-0.77,0.33-1.53,0.61-2.28c0.28-0.75,0.64-1.47,1.08-2.16c0.44-0.69,0.97-1.29,1.58-1.82c0.61-0.52,1.32-0.94,2.12-1.26
		c0.8-0.32,1.71-0.47,2.72-0.47c0.86,0,1.59,0.1,2.19,0.32c0.6,0.22,1.1,0.49,1.48,0.84c0.38,0.34,0.66,0.72,0.84,1.13
		C323.69,139.95,323.78,140.37,323.78,140.78z M321.17,141.01c0-0.52-0.21-0.95-0.62-1.27c-0.41-0.33-1-0.49-1.76-0.49
		c-0.66,0-1.26,0.12-1.77,0.34c-0.51,0.24-0.97,0.54-1.37,0.94c-0.4,0.39-0.74,0.84-1.02,1.36c-0.28,0.52-0.51,1.07-0.69,1.64h1.57
		c1.08,0,1.98-0.07,2.71-0.2c0.73-0.13,1.31-0.32,1.74-0.55c0.43-0.23,0.74-0.5,0.93-0.81
		C321.08,141.67,321.17,141.35,321.17,141.01z"/>
	<path class="st2" d="M335.62,152.91c-0.16,0.83-0.43,1.54-0.79,2.16c-0.37,0.62-0.83,1.13-1.4,1.54c-0.57,0.41-1.24,0.71-2.01,0.92
		c-0.78,0.21-1.66,0.31-2.64,0.31c-0.85,0-1.63-0.08-2.34-0.25c-0.7-0.17-1.26-0.37-1.69-0.61c-0.15-0.1-0.26-0.2-0.32-0.3
		c-0.06-0.1-0.08-0.22-0.08-0.38c0-0.06,0-0.15,0.01-0.26c0-0.12,0.02-0.23,0.04-0.34c0.03-0.12,0.06-0.23,0.09-0.35
		c0.04-0.13,0.08-0.24,0.14-0.33c0.05-0.1,0.12-0.18,0.21-0.24c0.08-0.05,0.17-0.08,0.26-0.08c0.12,0,0.28,0.06,0.46,0.17
		c0.18,0.1,0.43,0.23,0.74,0.36c0.31,0.13,0.69,0.26,1.15,0.37c0.46,0.11,1.02,0.17,1.69,0.17c0.56,0,1.06-0.06,1.51-0.17
		c0.44-0.11,0.83-0.28,1.17-0.52c0.34-0.22,0.6-0.51,0.82-0.86c0.21-0.34,0.37-0.76,0.47-1.25c0.17-0.94,0.35-1.71,0.52-2.33
		c0.18-0.62,0.32-1.09,0.43-1.43c-0.17,0.38-0.43,0.76-0.79,1.15c-0.36,0.38-0.78,0.74-1.25,1.06c-0.47,0.33-0.99,0.58-1.56,0.79
		c-0.56,0.2-1.14,0.3-1.72,0.3c-0.77,0-1.42-0.13-1.96-0.39c-0.53-0.26-0.97-0.61-1.28-1.06c-0.33-0.45-0.56-0.98-0.7-1.59
		c-0.14-0.61-0.22-1.27-0.22-1.98c0-0.59,0.06-1.26,0.17-2.01c0.11-0.75,0.29-1.49,0.54-2.25c0.25-0.76,0.56-1.49,0.95-2.21
		c0.38-0.71,0.85-1.35,1.4-1.91c0.54-0.56,1.17-1.01,1.89-1.34c0.72-0.34,1.52-0.51,2.43-0.51c0.91,0,1.7,0.18,2.35,0.55
		c0.65,0.37,1.24,0.88,1.75,1.52l0.29-1.4c0.04-0.16,0.16-0.28,0.36-0.36c0.19-0.07,0.5-0.1,0.91-0.1c0.21,0,0.38,0.01,0.51,0.03
		c0.14,0.01,0.26,0.04,0.33,0.08c0.08,0.04,0.13,0.09,0.15,0.15c0.02,0.06,0.03,0.13,0.02,0.2L335.62,152.91z M335.37,141.56
		c-0.48-0.71-1.01-1.24-1.57-1.6c-0.56-0.35-1.19-0.53-1.89-0.53c-0.55,0-1.05,0.13-1.49,0.39c-0.44,0.25-0.84,0.6-1.18,1.03
		c-0.34,0.43-0.64,0.92-0.9,1.47c-0.26,0.55-0.47,1.12-0.62,1.7c-0.16,0.58-0.28,1.15-0.36,1.73c-0.07,0.57-0.11,1.08-0.11,1.55
		c0,0.44,0.04,0.85,0.11,1.22c0.08,0.37,0.2,0.69,0.37,0.94c0.17,0.27,0.4,0.47,0.67,0.63c0.27,0.15,0.61,0.23,0.99,0.23
		c0.56,0,1.13-0.15,1.7-0.47c0.57-0.32,1.11-0.75,1.6-1.3c0.5-0.55,0.93-1.21,1.31-1.96c0.38-0.76,0.66-1.58,0.85-2.48
		L335.37,141.56z"/>
	<path class="st2" d="M341.85,151.81c-0.02,0.08-0.05,0.15-0.1,0.2c-0.05,0.06-0.13,0.11-0.23,0.15c-0.1,0.04-0.24,0.07-0.4,0.09
		c-0.17,0.02-0.38,0.03-0.63,0.03c-0.25,0-0.46,0-0.62-0.03c-0.16-0.02-0.28-0.05-0.37-0.09c-0.09-0.04-0.15-0.09-0.17-0.15
		c-0.03-0.05-0.03-0.12-0.01-0.2l2.76-13.88c0.01-0.07,0.04-0.14,0.09-0.2c0.06-0.06,0.13-0.12,0.23-0.15
		c0.1-0.04,0.24-0.07,0.41-0.09c0.17-0.02,0.38-0.03,0.64-0.03c0.25,0,0.45,0.01,0.61,0.03c0.16,0.02,0.28,0.05,0.37,0.09
		c0.09,0.04,0.14,0.09,0.17,0.15c0.02,0.06,0.03,0.13,0.02,0.2L341.85,151.81z M345.84,133.27c-0.05,0.29-0.12,0.53-0.2,0.72
		c-0.09,0.19-0.21,0.35-0.35,0.47c-0.14,0.11-0.32,0.2-0.54,0.25c-0.22,0.05-0.48,0.08-0.78,0.08c-0.3,0-0.55-0.03-0.74-0.08
		c-0.19-0.05-0.34-0.14-0.43-0.25c-0.09-0.12-0.15-0.28-0.15-0.47c-0.01-0.19,0-0.44,0.06-0.72c0.06-0.29,0.14-0.53,0.23-0.72
		c0.09-0.19,0.21-0.35,0.35-0.48c0.14-0.12,0.32-0.21,0.53-0.26c0.22-0.05,0.48-0.07,0.79-0.07c0.3,0,0.54,0.02,0.73,0.07
		c0.19,0.04,0.34,0.13,0.43,0.26c0.1,0.13,0.15,0.29,0.16,0.48C345.93,132.74,345.91,132.98,345.84,133.27z"/>
	<path class="st2" d="M355.8,138.69c0,0.1-0.01,0.24-0.05,0.41c-0.03,0.17-0.07,0.34-0.13,0.5c-0.06,0.16-0.12,0.3-0.2,0.42
		c-0.08,0.11-0.16,0.17-0.26,0.17c-0.12,0-0.27-0.05-0.44-0.14c-0.17-0.1-0.38-0.21-0.63-0.33c-0.25-0.12-0.54-0.23-0.88-0.34
		c-0.35-0.1-0.75-0.15-1.23-0.15c-0.46,0-0.86,0.06-1.2,0.19c-0.35,0.13-0.64,0.31-0.88,0.52c-0.24,0.22-0.42,0.48-0.54,0.76
		c-0.12,0.28-0.19,0.58-0.19,0.89c0,0.41,0.14,0.75,0.41,1.03c0.27,0.27,0.61,0.52,1.02,0.73c0.41,0.22,0.86,0.43,1.33,0.64
		c0.48,0.21,0.92,0.47,1.33,0.77c0.4,0.31,0.74,0.67,1.02,1.1c0.27,0.43,0.41,0.96,0.41,1.61c0,0.72-0.14,1.39-0.42,2.01
		c-0.28,0.63-0.69,1.16-1.22,1.61c-0.53,0.45-1.17,0.8-1.92,1.05c-0.75,0.25-1.59,0.38-2.51,0.38c-0.49,0-0.94-0.04-1.37-0.11
		c-0.43-0.07-0.81-0.16-1.16-0.28c-0.35-0.11-0.64-0.24-0.89-0.37c-0.25-0.15-0.44-0.27-0.57-0.4c-0.08-0.09-0.14-0.17-0.17-0.25
		c-0.04-0.09-0.05-0.19-0.05-0.32c0-0.08,0.01-0.18,0.01-0.29c0.01-0.11,0.03-0.23,0.06-0.36c0.03-0.12,0.07-0.24,0.1-0.36
		c0.04-0.11,0.08-0.21,0.13-0.31c0.05-0.09,0.1-0.17,0.15-0.22c0.05-0.06,0.11-0.09,0.19-0.09c0.12,0,0.27,0.07,0.44,0.21
		c0.18,0.13,0.41,0.29,0.69,0.44c0.28,0.16,0.63,0.31,1.06,0.45c0.42,0.13,0.95,0.21,1.57,0.21c0.56,0,1.05-0.07,1.46-0.21
		c0.4-0.14,0.74-0.33,1.01-0.55c0.27-0.24,0.47-0.51,0.6-0.81c0.13-0.31,0.19-0.63,0.19-0.97c0-0.43-0.13-0.78-0.4-1.06
		c-0.27-0.27-0.6-0.52-1.01-0.74c-0.41-0.22-0.85-0.44-1.32-0.66c-0.47-0.22-0.91-0.47-1.32-0.76c-0.41-0.3-0.75-0.65-1.01-1.08
		c-0.28-0.43-0.41-0.97-0.41-1.63c0-0.68,0.13-1.31,0.4-1.89c0.27-0.58,0.64-1.09,1.14-1.51c0.49-0.43,1.07-0.76,1.76-1
		c0.68-0.24,1.44-0.35,2.27-0.35c0.39,0,0.77,0.03,1.13,0.09c0.36,0.06,0.7,0.14,1.01,0.23c0.31,0.09,0.58,0.2,0.8,0.31
		c0.23,0.11,0.4,0.22,0.51,0.34C355.75,138.32,355.8,138.48,355.8,138.69z"/>
	<path class="st2" d="M376.25,142.53c0,0.76-0.07,1.54-0.22,2.33c-0.14,0.8-0.36,1.56-0.65,2.29c-0.29,0.74-0.66,1.43-1.12,2.07
		c-0.45,0.65-0.98,1.21-1.59,1.7c-0.61,0.49-1.31,0.87-2.08,1.15c-0.78,0.28-1.64,0.42-2.6,0.42c-0.99,0-1.83-0.12-2.54-0.35
		c-0.71-0.24-1.28-0.58-1.73-1.03c-0.46-0.45-0.79-1.01-1-1.66c-0.22-0.66-0.32-1.4-0.32-2.24c0-0.76,0.07-1.54,0.21-2.32
		c0.14-0.79,0.36-1.55,0.66-2.28c0.3-0.73,0.67-1.42,1.12-2.07c0.45-0.65,0.97-1.22,1.59-1.7c0.61-0.49,1.3-0.87,2.08-1.15
		c0.77-0.28,1.64-0.42,2.59-0.42c0.99,0,1.83,0.12,2.54,0.36c0.7,0.24,1.28,0.59,1.74,1.04c0.46,0.45,0.79,1.01,1.01,1.67
		C376.14,140.97,376.25,141.71,376.25,142.53z M373.57,142.69c0-0.52-0.05-0.98-0.16-1.39c-0.11-0.41-0.29-0.76-0.54-1.04
		c-0.26-0.29-0.58-0.5-0.99-0.66c-0.41-0.16-0.9-0.23-1.47-0.23c-0.62,0-1.18,0.11-1.68,0.33c-0.5,0.22-0.95,0.52-1.35,0.89
		c-0.4,0.37-0.74,0.81-1.03,1.32c-0.29,0.5-0.54,1.04-0.72,1.61c-0.19,0.57-0.33,1.15-0.43,1.76c-0.09,0.6-0.14,1.19-0.14,1.76
		c0,0.51,0.05,0.98,0.17,1.39c0.11,0.41,0.29,0.76,0.55,1.05c0.25,0.29,0.58,0.51,0.98,0.66c0.4,0.15,0.89,0.23,1.46,0.23
		c0.63,0,1.19-0.11,1.69-0.33c0.5-0.22,0.95-0.52,1.34-0.9c0.4-0.38,0.74-0.82,1.03-1.32c0.29-0.5,0.53-1.04,0.72-1.62
		c0.19-0.57,0.33-1.16,0.42-1.76C373.52,143.85,373.57,143.26,373.57,142.69z"/>
	<path class="st2" d="M388.72,131.62c0,0.04-0.01,0.11-0.01,0.19c-0.01,0.08-0.02,0.18-0.04,0.29c-0.02,0.11-0.04,0.22-0.07,0.34
		c-0.03,0.12-0.07,0.23-0.11,0.33c-0.04,0.1-0.09,0.18-0.14,0.25c-0.05,0.06-0.11,0.09-0.17,0.09c-0.07,0-0.16-0.02-0.27-0.06
		c-0.11-0.04-0.24-0.09-0.38-0.13c-0.15-0.05-0.32-0.09-0.51-0.13c-0.19-0.04-0.41-0.06-0.65-0.06c-0.44,0-0.82,0.07-1.13,0.2
		c-0.31,0.13-0.58,0.34-0.81,0.62c-0.22,0.29-0.42,0.65-0.57,1.07c-0.15,0.43-0.28,0.94-0.4,1.53l-0.26,1.39h3.1
		c0.12,0,0.2,0.04,0.27,0.11c0.06,0.08,0.1,0.2,0.1,0.38c0,0.11-0.01,0.23-0.03,0.36c-0.02,0.12-0.05,0.24-0.08,0.36
		c-0.03,0.12-0.07,0.23-0.11,0.34c-0.05,0.1-0.1,0.2-0.15,0.28c-0.06,0.08-0.12,0.14-0.19,0.2c-0.07,0.05-0.15,0.08-0.22,0.08h-3.11
		l-2.64,13.13c-0.18,0.86-0.41,1.61-0.71,2.24c-0.3,0.63-0.66,1.16-1.09,1.57c-0.43,0.42-0.93,0.72-1.49,0.93
		c-0.57,0.19-1.21,0.29-1.91,0.29c-0.46,0-0.84-0.04-1.13-0.11c-0.29-0.07-0.48-0.14-0.55-0.2c-0.04-0.05-0.07-0.1-0.09-0.17
		c-0.02-0.06-0.03-0.14-0.03-0.25c0-0.04,0.01-0.1,0.02-0.21c0.01-0.09,0.03-0.2,0.05-0.31c0.02-0.11,0.05-0.22,0.08-0.34
		c0.03-0.12,0.07-0.23,0.11-0.33c0.04-0.1,0.09-0.18,0.14-0.25c0.05-0.06,0.11-0.09,0.19-0.09c0.07,0,0.14,0.01,0.21,0.02
		c0.07,0.02,0.14,0.03,0.22,0.05c0.08,0.01,0.17,0.03,0.28,0.04c0.11,0.02,0.24,0.02,0.41,0.02c0.43,0,0.8-0.06,1.12-0.2
		c0.32-0.13,0.58-0.34,0.8-0.63c0.22-0.28,0.41-0.64,0.55-1.07c0.15-0.44,0.28-0.95,0.41-1.56l2.53-12.61h-1.97
		c-0.1,0-0.18-0.04-0.24-0.1c-0.06-0.07-0.08-0.19-0.08-0.38c0-0.08,0-0.18,0.01-0.3c0.01-0.12,0.03-0.24,0.05-0.37
		c0.03-0.12,0.06-0.24,0.1-0.35c0.04-0.11,0.09-0.22,0.15-0.31c0.06-0.09,0.13-0.17,0.2-0.23c0.06-0.05,0.15-0.08,0.25-0.08h1.94
		l0.39-1.93c0.16-0.84,0.4-1.58,0.71-2.21c0.31-0.63,0.68-1.15,1.12-1.56c0.43-0.41,0.94-0.72,1.51-0.92c0.57-0.21,1.2-0.3,1.89-0.3
		c0.22,0,0.46,0.01,0.71,0.04c0.25,0.03,0.48,0.06,0.69,0.11c0.21,0.04,0.4,0.1,0.56,0.16c0.16,0.06,0.27,0.13,0.33,0.19
		c0.06,0.05,0.11,0.12,0.14,0.21C388.71,131.42,388.72,131.52,388.72,131.62z"/>
	<path class="st2" d="M407.93,132.79c0,0.06,0,0.14-0.01,0.25c0,0.11-0.02,0.23-0.04,0.35c-0.03,0.12-0.06,0.25-0.1,0.4
		c-0.04,0.13-0.09,0.25-0.15,0.36c-0.06,0.1-0.14,0.19-0.22,0.25c-0.09,0.06-0.19,0.1-0.29,0.1h-5.61l-3.47,17.3
		c-0.02,0.08-0.06,0.15-0.12,0.22c-0.06,0.06-0.14,0.11-0.24,0.14c-0.11,0.03-0.25,0.07-0.42,0.09c-0.18,0.03-0.39,0.04-0.65,0.04
		c-0.26,0-0.47-0.01-0.63-0.04c-0.16-0.02-0.29-0.06-0.38-0.09c-0.09-0.04-0.15-0.09-0.18-0.14c-0.03-0.06-0.04-0.14-0.01-0.22
		l3.46-17.3h-5.58c-0.15,0-0.24-0.05-0.29-0.14c-0.05-0.09-0.08-0.22-0.08-0.39c0-0.07,0.01-0.16,0.03-0.27
		c0.02-0.11,0.03-0.23,0.06-0.36c0.03-0.13,0.06-0.26,0.1-0.39c0.04-0.12,0.09-0.24,0.16-0.34c0.06-0.11,0.13-0.2,0.21-0.27
		c0.08-0.07,0.17-0.1,0.27-0.1h13.88c0.13,0,0.22,0.05,0.28,0.14C407.91,132.49,407.93,132.62,407.93,132.79z"/>
	<path class="st2" d="M417.1,151.81c-0.02,0.08-0.05,0.15-0.1,0.2c-0.06,0.06-0.13,0.11-0.24,0.15c-0.11,0.04-0.25,0.07-0.41,0.09
		c-0.16,0.02-0.38,0.03-0.63,0.03c-0.24,0-0.45,0-0.6-0.03c-0.16-0.02-0.28-0.05-0.37-0.09c-0.09-0.04-0.15-0.09-0.17-0.15
		c-0.03-0.05-0.03-0.12-0.02-0.2l1.71-8.57c0.05-0.27,0.09-0.57,0.13-0.91c0.04-0.33,0.05-0.62,0.05-0.87c0-0.3-0.03-0.57-0.09-0.82
		c-0.06-0.25-0.16-0.46-0.3-0.64c-0.14-0.18-0.32-0.33-0.54-0.43c-0.22-0.1-0.49-0.15-0.81-0.15c-0.55,0-1.1,0.16-1.67,0.48
		c-0.57,0.32-1.1,0.76-1.59,1.32c-0.49,0.56-0.92,1.22-1.31,1.99c-0.38,0.76-0.66,1.57-0.84,2.45l-1.23,6.15
		c-0.02,0.08-0.06,0.15-0.11,0.2c-0.05,0.06-0.13,0.11-0.23,0.15c-0.1,0.04-0.24,0.07-0.41,0.09c-0.17,0.02-0.38,0.03-0.63,0.03
		c-0.26,0-0.46,0-0.62-0.03c-0.16-0.02-0.28-0.05-0.37-0.09c-0.09-0.04-0.14-0.09-0.17-0.15c-0.03-0.05-0.03-0.12-0.01-0.2l4.1-20.6
		c0.02-0.08,0.05-0.15,0.1-0.22c0.05-0.06,0.13-0.11,0.23-0.15c0.11-0.04,0.25-0.07,0.42-0.09c0.17-0.02,0.38-0.03,0.64-0.03
		c0.25,0,0.45,0.01,0.61,0.03c0.15,0.02,0.28,0.05,0.37,0.09c0.09,0.04,0.14,0.09,0.16,0.15c0.02,0.06,0.02,0.13,0.01,0.22
		l-1.23,6.27c-0.05,0.27-0.12,0.54-0.18,0.82c-0.07,0.28-0.15,0.55-0.22,0.82c-0.08,0.27-0.15,0.53-0.23,0.78
		c-0.08,0.25-0.14,0.46-0.21,0.65c0.16-0.36,0.42-0.73,0.77-1.12c0.35-0.38,0.76-0.74,1.23-1.06c0.47-0.33,1-0.59,1.57-0.81
		c0.57-0.22,1.15-0.32,1.76-0.32c0.66,0,1.22,0.09,1.68,0.28c0.46,0.19,0.84,0.46,1.14,0.79c0.29,0.33,0.51,0.73,0.64,1.19
		c0.13,0.46,0.2,0.96,0.2,1.49c0,0.37-0.02,0.73-0.06,1.08c-0.04,0.35-0.1,0.7-0.17,1.07L417.1,151.81z"/>
	<path class="st2" d="M433.73,140.78c0,0.71-0.16,1.35-0.49,1.91c-0.33,0.56-0.84,1.05-1.54,1.45c-0.7,0.4-1.59,0.71-2.68,0.93
		c-1.09,0.22-2.4,0.32-3.92,0.32h-1.63c-0.07,0.34-0.12,0.67-0.14,0.98c-0.03,0.32-0.04,0.62-0.04,0.9c0,1.03,0.25,1.81,0.77,2.36
		c0.51,0.54,1.33,0.81,2.47,0.81c0.66,0,1.25-0.05,1.77-0.14c0.52-0.1,0.98-0.2,1.37-0.32c0.38-0.11,0.7-0.22,0.95-0.32
		c0.25-0.09,0.42-0.15,0.51-0.15c0.09,0,0.16,0.04,0.21,0.1c0.05,0.07,0.07,0.16,0.07,0.29c0,0.1-0.01,0.22-0.03,0.37
		c-0.02,0.14-0.05,0.29-0.09,0.44c-0.04,0.15-0.1,0.29-0.16,0.42c-0.07,0.13-0.14,0.24-0.22,0.34c-0.12,0.12-0.34,0.24-0.65,0.36
		c-0.32,0.12-0.69,0.23-1.12,0.33c-0.43,0.1-0.9,0.18-1.42,0.24c-0.51,0.06-1.03,0.09-1.54,0.09c-0.92,0-1.72-0.1-2.4-0.31
		c-0.69-0.21-1.26-0.52-1.72-0.95c-0.46-0.43-0.8-0.96-1.03-1.6c-0.22-0.64-0.34-1.39-0.34-2.25c0-0.67,0.07-1.38,0.19-2.15
		c0.13-0.77,0.33-1.53,0.61-2.28c0.28-0.75,0.64-1.47,1.08-2.16c0.44-0.69,0.97-1.29,1.58-1.82c0.61-0.52,1.32-0.94,2.12-1.26
		c0.8-0.32,1.7-0.47,2.71-0.47c0.86,0,1.6,0.1,2.2,0.32c0.6,0.22,1.09,0.49,1.48,0.84c0.39,0.34,0.66,0.72,0.84,1.13
		C433.64,139.95,433.73,140.37,433.73,140.78z M431.12,141.01c0-0.52-0.2-0.95-0.61-1.27c-0.41-0.33-1-0.49-1.76-0.49
		c-0.67,0-1.26,0.12-1.77,0.34c-0.51,0.24-0.97,0.54-1.36,0.94c-0.4,0.39-0.74,0.84-1.02,1.36c-0.28,0.52-0.51,1.07-0.68,1.64h1.57
		c1.08,0,1.98-0.07,2.7-0.2c0.73-0.13,1.3-0.32,1.74-0.55c0.43-0.23,0.74-0.5,0.92-0.81C431.04,141.67,431.12,141.35,431.12,141.01z
		"/>
	<path class="st2" d="M457.98,139.43c0,0.67-0.04,1.37-0.14,2.09c-0.09,0.72-0.24,1.45-0.44,2.17c-0.2,0.73-0.46,1.44-0.78,2.14
		c-0.32,0.7-0.7,1.37-1.16,1.99c-0.46,0.63-0.99,1.22-1.59,1.75c-0.6,0.53-1.29,1-2.06,1.39c-0.77,0.39-1.63,0.69-2.57,0.91
		c-0.95,0.22-2.08,0.32-3.41,0.32h-4.42c-0.14,0-0.26-0.02-0.38-0.05c-0.12-0.03-0.22-0.09-0.3-0.18c-0.08-0.09-0.14-0.19-0.17-0.33
		c-0.03-0.14-0.02-0.31,0.03-0.52l3.55-17.79c0.07-0.4,0.23-0.68,0.47-0.84c0.24-0.16,0.52-0.24,0.82-0.24h4.21
		c1.53,0,2.8,0.16,3.81,0.49c1,0.32,1.85,0.79,2.52,1.41c0.67,0.61,1.18,1.37,1.51,2.26C457.82,137.3,457.98,138.3,457.98,139.43z
		 M455.18,139.67c0-0.76-0.1-1.46-0.32-2.1c-0.21-0.63-0.54-1.18-1-1.64c-0.45-0.46-1.03-0.81-1.73-1.08
		c-0.7-0.26-1.64-0.39-2.8-0.39h-2.77l-3.1,15.52h2.75c1.26,0,2.3-0.15,3.14-0.45c0.84-0.3,1.59-0.71,2.24-1.23
		c0.65-0.52,1.2-1.12,1.65-1.81c0.45-0.69,0.82-1.41,1.11-2.18c0.29-0.76,0.5-1.54,0.63-2.34
		C455.11,141.17,455.18,140.4,455.18,139.67z"/>
	<path class="st2" d="M473.73,136.94c0,0.55-0.06,1.12-0.19,1.71c-0.13,0.6-0.33,1.18-0.61,1.75c-0.28,0.57-0.63,1.11-1.06,1.62
		c-0.43,0.5-0.94,0.96-1.55,1.34c-0.61,0.39-1.3,0.7-2.09,0.92c-0.79,0.22-1.72,0.33-2.79,0.33h-2.74l-1.43,7.2
		c-0.02,0.07-0.05,0.14-0.11,0.2c-0.05,0.06-0.13,0.11-0.25,0.14c-0.12,0.03-0.26,0.07-0.43,0.09c-0.17,0.03-0.39,0.04-0.64,0.04
		c-0.24,0-0.44,0-0.6-0.03c-0.17-0.02-0.3-0.05-0.39-0.09c-0.1-0.03-0.17-0.08-0.2-0.14c-0.04-0.06-0.04-0.13-0.02-0.22l3.67-18.42
		c0.08-0.41,0.25-0.7,0.51-0.88c0.26-0.17,0.55-0.26,0.89-0.26h3.93c0.51,0,0.97,0.02,1.36,0.05c0.4,0.03,0.78,0.09,1.15,0.18
		c0.56,0.12,1.06,0.32,1.51,0.57c0.45,0.26,0.82,0.57,1.13,0.95c0.31,0.37,0.55,0.8,0.71,1.3
		C473.64,135.8,473.73,136.34,473.73,136.94z M470.92,137.21c0-0.64-0.16-1.18-0.47-1.64c-0.32-0.46-0.8-0.78-1.46-0.96
		c-0.25-0.07-0.52-0.12-0.82-0.14c-0.3-0.02-0.62-0.03-0.96-0.03h-2.5l-1.57,8h2.52c0.73,0,1.35-0.08,1.85-0.24
		c0.5-0.17,0.95-0.38,1.33-0.65c0.38-0.27,0.7-0.58,0.97-0.94c0.26-0.36,0.48-0.73,0.64-1.12c0.16-0.39,0.29-0.78,0.36-1.17
		C470.89,137.92,470.92,137.55,470.92,137.21z"/>
	<path class="st2" d="M486.57,133.76c0,0.08,0,0.18-0.01,0.28c-0.01,0.11-0.03,0.23-0.05,0.34c-0.03,0.12-0.06,0.24-0.09,0.37
		c-0.04,0.13-0.08,0.25-0.13,0.34c-0.05,0.09-0.11,0.18-0.18,0.24c-0.07,0.06-0.14,0.09-0.22,0.09c-0.12,0-0.27-0.07-0.47-0.2
		c-0.2-0.13-0.46-0.27-0.77-0.42c-0.32-0.15-0.69-0.29-1.12-0.43c-0.43-0.13-0.93-0.2-1.49-0.2c-0.62,0-1.18,0.09-1.65,0.29
		c-0.47,0.19-0.87,0.45-1.19,0.77c-0.32,0.32-0.56,0.69-0.72,1.1c-0.16,0.41-0.24,0.84-0.24,1.28c0,0.45,0.1,0.85,0.3,1.19
		c0.2,0.34,0.46,0.65,0.79,0.92c0.32,0.28,0.69,0.54,1.11,0.79c0.42,0.25,0.84,0.5,1.27,0.76c0.43,0.26,0.86,0.53,1.28,0.82
		c0.42,0.3,0.79,0.63,1.11,1.02c0.33,0.39,0.59,0.83,0.79,1.33c0.2,0.5,0.3,1.08,0.3,1.74c0,0.87-0.18,1.69-0.54,2.46
		c-0.36,0.76-0.87,1.43-1.53,2c-0.66,0.57-1.47,1.02-2.4,1.36c-0.94,0.33-1.98,0.5-3.13,0.5c-0.63,0-1.21-0.05-1.75-0.17
		c-0.54-0.1-1.03-0.24-1.46-0.4c-0.43-0.16-0.79-0.32-1.09-0.49c-0.3-0.17-0.52-0.32-0.65-0.45c-0.13-0.13-0.2-0.33-0.2-0.59
		c0-0.06,0.01-0.15,0.02-0.26c0.02-0.11,0.04-0.24,0.07-0.37c0.03-0.13,0.06-0.27,0.1-0.39c0.03-0.13,0.08-0.24,0.14-0.35
		c0.06-0.11,0.12-0.19,0.19-0.26c0.06-0.07,0.14-0.1,0.24-0.1c0.17,0,0.37,0.08,0.62,0.25c0.25,0.16,0.55,0.34,0.92,0.53
		c0.37,0.19,0.8,0.37,1.3,0.53c0.5,0.16,1.1,0.24,1.77,0.24c0.72,0,1.36-0.1,1.93-0.3c0.57-0.2,1.04-0.48,1.43-0.82
		c0.39-0.34,0.68-0.75,0.89-1.21c0.2-0.46,0.31-0.96,0.31-1.48c0-0.46-0.1-0.87-0.29-1.21c-0.19-0.34-0.46-0.66-0.77-0.93
		c-0.32-0.28-0.69-0.53-1.1-0.77c-0.42-0.24-0.84-0.49-1.26-0.74c-0.43-0.26-0.85-0.53-1.26-0.82c-0.41-0.3-0.78-0.64-1.1-1.02
		c-0.32-0.39-0.57-0.83-0.77-1.33c-0.2-0.5-0.31-1.08-0.31-1.75c0-0.81,0.16-1.57,0.48-2.29c0.32-0.71,0.77-1.33,1.36-1.86
		c0.58-0.53,1.29-0.96,2.13-1.26c0.83-0.31,1.76-0.46,2.79-0.46c0.49,0,0.97,0.04,1.41,0.12c0.44,0.08,0.85,0.18,1.21,0.3
		c0.36,0.12,0.67,0.25,0.93,0.39c0.26,0.13,0.43,0.25,0.53,0.34c0.09,0.09,0.16,0.19,0.2,0.28
		C486.55,133.5,486.57,133.62,486.57,133.76z"/>
	<path class="st2" d="M505.46,133.76c0,0.08,0,0.18-0.01,0.28c-0.01,0.11-0.03,0.23-0.05,0.34c-0.03,0.12-0.06,0.24-0.09,0.37
		c-0.04,0.13-0.08,0.25-0.13,0.34c-0.05,0.09-0.11,0.18-0.18,0.24c-0.07,0.06-0.14,0.09-0.22,0.09c-0.12,0-0.27-0.07-0.47-0.2
		c-0.2-0.13-0.46-0.27-0.77-0.42c-0.32-0.15-0.69-0.29-1.12-0.43c-0.43-0.13-0.93-0.2-1.49-0.2c-0.63,0-1.18,0.09-1.65,0.29
		c-0.47,0.19-0.87,0.45-1.19,0.77c-0.32,0.32-0.56,0.69-0.71,1.1c-0.16,0.41-0.24,0.84-0.24,1.28c0,0.45,0.1,0.85,0.3,1.19
		c0.2,0.34,0.46,0.65,0.79,0.92c0.32,0.28,0.69,0.54,1.11,0.79c0.42,0.25,0.84,0.5,1.27,0.76c0.43,0.26,0.86,0.53,1.28,0.82
		c0.42,0.3,0.8,0.63,1.12,1.02c0.33,0.39,0.59,0.83,0.79,1.33c0.2,0.5,0.3,1.08,0.3,1.74c0,0.87-0.18,1.69-0.54,2.46
		c-0.36,0.76-0.87,1.43-1.53,2c-0.66,0.57-1.46,1.02-2.4,1.36c-0.94,0.33-1.98,0.5-3.13,0.5c-0.63,0-1.21-0.05-1.75-0.17
		c-0.54-0.1-1.03-0.24-1.46-0.4c-0.43-0.16-0.79-0.32-1.09-0.49c-0.3-0.17-0.52-0.32-0.65-0.45c-0.13-0.13-0.2-0.33-0.2-0.59
		c0-0.06,0.01-0.15,0.02-0.26c0.02-0.11,0.04-0.24,0.07-0.37c0.03-0.13,0.07-0.27,0.1-0.39c0.03-0.13,0.08-0.24,0.14-0.35
		c0.06-0.11,0.12-0.19,0.19-0.26c0.06-0.07,0.14-0.1,0.24-0.1c0.16,0,0.37,0.08,0.62,0.25c0.25,0.16,0.55,0.34,0.92,0.53
		c0.36,0.19,0.8,0.37,1.3,0.53c0.5,0.16,1.1,0.24,1.77,0.24c0.72,0,1.37-0.1,1.93-0.3c0.56-0.2,1.04-0.48,1.43-0.82
		c0.39-0.34,0.68-0.75,0.88-1.21c0.21-0.46,0.31-0.96,0.31-1.48c0-0.46-0.09-0.87-0.29-1.21c-0.19-0.34-0.46-0.66-0.77-0.93
		c-0.32-0.28-0.68-0.53-1.1-0.77c-0.42-0.24-0.84-0.49-1.27-0.74c-0.43-0.26-0.85-0.53-1.26-0.82c-0.41-0.3-0.78-0.64-1.1-1.02
		c-0.32-0.39-0.57-0.83-0.78-1.33c-0.2-0.5-0.3-1.08-0.3-1.75c0-0.81,0.16-1.57,0.48-2.29c0.32-0.71,0.77-1.33,1.36-1.86
		c0.58-0.53,1.29-0.96,2.13-1.26c0.83-0.31,1.77-0.46,2.79-0.46c0.49,0,0.96,0.04,1.41,0.12c0.45,0.08,0.85,0.18,1.21,0.3
		c0.36,0.12,0.67,0.25,0.93,0.39c0.25,0.13,0.43,0.25,0.52,0.34c0.09,0.09,0.16,0.19,0.2,0.28
		C505.44,133.5,505.46,133.62,505.46,133.76z"/>
	<path class="st2" d="M519.34,142.53c0,0.76-0.07,1.54-0.22,2.33c-0.14,0.8-0.36,1.56-0.65,2.29c-0.29,0.74-0.66,1.43-1.12,2.07
		c-0.45,0.65-0.98,1.21-1.59,1.7c-0.62,0.49-1.31,0.87-2.08,1.15c-0.78,0.28-1.64,0.42-2.6,0.42c-0.99,0-1.83-0.12-2.53-0.35
		c-0.71-0.24-1.28-0.58-1.74-1.03c-0.46-0.45-0.79-1.01-1-1.66c-0.22-0.66-0.32-1.4-0.32-2.24c0-0.76,0.07-1.54,0.21-2.32
		c0.14-0.79,0.36-1.55,0.65-2.28c0.3-0.73,0.67-1.42,1.12-2.07c0.45-0.65,0.98-1.22,1.59-1.7c0.61-0.49,1.3-0.87,2.08-1.15
		c0.77-0.28,1.64-0.42,2.59-0.42c0.99,0,1.83,0.12,2.54,0.36c0.7,0.24,1.28,0.59,1.74,1.04c0.46,0.45,0.79,1.01,1.01,1.67
		C519.23,140.97,519.34,141.71,519.34,142.53z M516.65,142.69c0-0.52-0.05-0.98-0.16-1.39c-0.11-0.41-0.29-0.76-0.54-1.04
		c-0.25-0.29-0.58-0.5-0.99-0.66c-0.41-0.16-0.9-0.23-1.48-0.23c-0.61,0-1.17,0.11-1.68,0.33c-0.5,0.22-0.95,0.52-1.35,0.89
		c-0.4,0.37-0.74,0.81-1.03,1.32c-0.29,0.5-0.54,1.04-0.72,1.61c-0.19,0.57-0.33,1.15-0.43,1.76c-0.09,0.6-0.14,1.19-0.14,1.76
		c0,0.51,0.06,0.98,0.17,1.39c0.11,0.41,0.3,0.76,0.55,1.05c0.25,0.29,0.58,0.51,0.98,0.66c0.4,0.15,0.89,0.23,1.46,0.23
		c0.63,0,1.19-0.11,1.69-0.33c0.5-0.22,0.95-0.52,1.34-0.9c0.4-0.38,0.74-0.82,1.04-1.32c0.29-0.5,0.53-1.04,0.72-1.62
		c0.19-0.57,0.33-1.16,0.42-1.76C516.61,143.85,516.65,143.26,516.65,142.69z"/>
	<path class="st2" d="M532.38,139.16c0,0.19-0.01,0.38-0.05,0.57c-0.04,0.19-0.09,0.38-0.16,0.55c-0.07,0.17-0.16,0.31-0.25,0.43
		c-0.1,0.11-0.21,0.17-0.33,0.17c-0.15,0-0.29-0.07-0.45-0.22c-0.15-0.15-0.36-0.32-0.61-0.5c-0.25-0.19-0.57-0.36-0.95-0.51
		c-0.39-0.16-0.88-0.23-1.48-0.23c-0.66,0-1.24,0.14-1.75,0.41c-0.51,0.28-0.95,0.63-1.33,1.07c-0.38,0.44-0.69,0.93-0.94,1.49
		c-0.24,0.55-0.44,1.11-0.6,1.68c-0.15,0.56-0.26,1.11-0.33,1.64c-0.07,0.53-0.1,0.99-0.1,1.38c0,1.06,0.23,1.86,0.69,2.41
		c0.46,0.54,1.15,0.82,2.06,0.82c0.67,0,1.24-0.08,1.72-0.25c0.48-0.17,0.88-0.35,1.22-0.56c0.33-0.21,0.61-0.4,0.83-0.56
		c0.22-0.17,0.41-0.25,0.57-0.25c0.08,0,0.15,0.04,0.19,0.11c0.05,0.08,0.07,0.19,0.07,0.33c0,0.13-0.01,0.27-0.03,0.44
		c-0.02,0.17-0.05,0.35-0.1,0.52c-0.04,0.18-0.1,0.35-0.17,0.51c-0.07,0.15-0.16,0.29-0.29,0.42c-0.12,0.13-0.34,0.29-0.65,0.47
		c-0.31,0.18-0.66,0.35-1.07,0.5c-0.41,0.14-0.85,0.27-1.32,0.37c-0.47,0.1-0.96,0.15-1.46,0.15c-1.66,0-2.89-0.42-3.71-1.26
		c-0.82-0.84-1.23-2.1-1.23-3.76c0-0.63,0.06-1.31,0.16-2.06c0.11-0.75,0.29-1.5,0.55-2.25c0.26-0.76,0.58-1.49,0.99-2.2
		c0.4-0.71,0.89-1.34,1.48-1.89c0.58-0.55,1.26-0.99,2.04-1.31c0.77-0.33,1.65-0.5,2.65-0.5c0.41,0,0.81,0.04,1.19,0.1
		c0.38,0.06,0.74,0.15,1.07,0.27c0.34,0.12,0.64,0.26,0.91,0.42c0.27,0.17,0.48,0.32,0.63,0.46c0.15,0.13,0.24,0.25,0.28,0.34
		C532.37,138.94,532.38,139.04,532.38,139.16z"/>
	<path class="st2" d="M534.63,151.81c-0.02,0.08-0.05,0.15-0.11,0.2c-0.05,0.06-0.13,0.11-0.23,0.15c-0.1,0.04-0.24,0.07-0.41,0.09
		c-0.17,0.02-0.38,0.03-0.63,0.03c-0.25,0-0.46,0-0.62-0.03c-0.16-0.02-0.28-0.05-0.37-0.09c-0.09-0.04-0.15-0.09-0.17-0.15
		c-0.03-0.05-0.03-0.12-0.01-0.2l2.76-13.88c0.01-0.07,0.04-0.14,0.09-0.2c0.05-0.06,0.13-0.12,0.23-0.15
		c0.1-0.04,0.24-0.07,0.41-0.09c0.17-0.02,0.38-0.03,0.64-0.03c0.25,0,0.45,0.01,0.61,0.03c0.16,0.02,0.28,0.05,0.37,0.09
		c0.08,0.04,0.14,0.09,0.17,0.15c0.02,0.06,0.03,0.13,0.02,0.2L534.63,151.81z M538.63,133.27c-0.05,0.29-0.12,0.53-0.2,0.72
		c-0.09,0.19-0.2,0.35-0.35,0.47c-0.15,0.11-0.33,0.2-0.54,0.25c-0.22,0.05-0.48,0.08-0.79,0.08c-0.3,0-0.54-0.03-0.74-0.08
		c-0.19-0.05-0.34-0.14-0.43-0.25c-0.09-0.12-0.14-0.28-0.15-0.47c-0.01-0.19,0.01-0.44,0.06-0.72c0.06-0.29,0.14-0.53,0.23-0.72
		c0.09-0.19,0.21-0.35,0.35-0.48c0.14-0.12,0.31-0.21,0.53-0.26c0.22-0.05,0.48-0.07,0.79-0.07c0.3,0,0.54,0.02,0.73,0.07
		c0.19,0.04,0.34,0.13,0.43,0.26c0.09,0.13,0.15,0.29,0.16,0.48C538.72,132.74,538.69,132.98,538.63,133.27z"/>
	<path class="st2" d="M551.33,140.78c0,0.71-0.16,1.35-0.49,1.91c-0.33,0.56-0.84,1.05-1.54,1.45c-0.7,0.4-1.6,0.71-2.68,0.93
		c-1.09,0.22-2.4,0.32-3.92,0.32h-1.63c-0.07,0.34-0.12,0.67-0.15,0.98c-0.03,0.32-0.04,0.62-0.04,0.9c0,1.03,0.26,1.81,0.77,2.36
		c0.51,0.54,1.33,0.81,2.47,0.81c0.66,0,1.25-0.05,1.77-0.14c0.53-0.1,0.98-0.2,1.37-0.32c0.38-0.11,0.7-0.22,0.95-0.32
		c0.24-0.09,0.42-0.15,0.51-0.15c0.09,0,0.16,0.04,0.21,0.1c0.05,0.07,0.07,0.16,0.07,0.29c0,0.1-0.01,0.22-0.03,0.37
		c-0.02,0.14-0.05,0.29-0.09,0.44c-0.04,0.15-0.1,0.29-0.16,0.42c-0.07,0.13-0.14,0.24-0.23,0.34c-0.12,0.12-0.34,0.24-0.65,0.36
		c-0.32,0.12-0.69,0.23-1.12,0.33c-0.43,0.1-0.9,0.18-1.42,0.24c-0.52,0.06-1.03,0.09-1.54,0.09c-0.92,0-1.72-0.1-2.41-0.31
		c-0.69-0.21-1.26-0.52-1.72-0.95c-0.46-0.43-0.8-0.96-1.03-1.6c-0.23-0.64-0.34-1.39-0.34-2.25c0-0.67,0.06-1.38,0.19-2.15
		c0.13-0.77,0.33-1.53,0.61-2.28c0.28-0.75,0.64-1.47,1.08-2.16c0.44-0.69,0.97-1.29,1.58-1.82c0.61-0.52,1.32-0.94,2.12-1.26
		c0.8-0.32,1.71-0.47,2.71-0.47c0.86,0,1.6,0.1,2.2,0.32c0.6,0.22,1.09,0.49,1.48,0.84c0.39,0.34,0.66,0.72,0.84,1.13
		C551.25,139.95,551.33,140.37,551.33,140.78z M548.73,141.01c0-0.52-0.21-0.95-0.62-1.27c-0.41-0.33-1-0.49-1.76-0.49
		c-0.67,0-1.26,0.12-1.77,0.34c-0.51,0.24-0.97,0.54-1.36,0.94c-0.4,0.39-0.74,0.84-1.02,1.36c-0.28,0.52-0.51,1.07-0.68,1.64h1.57
		c1.08,0,1.98-0.07,2.7-0.2c0.73-0.13,1.3-0.32,1.74-0.55c0.43-0.23,0.74-0.5,0.93-0.81C548.64,141.67,548.73,141.35,548.73,141.01z
		"/>
	<path class="st2" d="M561.65,138.09c0,0.09-0.01,0.19-0.02,0.3c-0.01,0.11-0.03,0.22-0.06,0.33c-0.03,0.11-0.07,0.22-0.13,0.34
		c-0.05,0.12-0.1,0.21-0.16,0.3c-0.06,0.09-0.13,0.15-0.19,0.21c-0.07,0.05-0.15,0.08-0.25,0.08h-3.55l-1.56,7.74
		c-0.04,0.22-0.08,0.46-0.11,0.73c-0.03,0.27-0.04,0.49-0.04,0.66c0,0.52,0.11,0.9,0.33,1.15c0.22,0.24,0.58,0.37,1.07,0.37
		c0.28,0,0.52-0.03,0.73-0.07c0.2-0.05,0.38-0.09,0.53-0.15c0.15-0.05,0.28-0.1,0.39-0.15c0.11-0.04,0.21-0.07,0.29-0.07
		c0.08,0,0.15,0.03,0.19,0.09c0.04,0.05,0.07,0.16,0.07,0.32c0,0.13-0.01,0.28-0.04,0.44c-0.03,0.16-0.06,0.32-0.1,0.47
		c-0.04,0.15-0.09,0.29-0.15,0.42c-0.06,0.12-0.13,0.22-0.2,0.29c-0.08,0.07-0.21,0.14-0.37,0.22c-0.16,0.07-0.35,0.14-0.57,0.19
		c-0.22,0.05-0.45,0.1-0.69,0.13c-0.24,0.03-0.48,0.05-0.72,0.05c-0.58,0-1.07-0.06-1.49-0.18c-0.42-0.13-0.78-0.32-1.06-0.58
		c-0.29-0.26-0.5-0.59-0.64-0.98c-0.14-0.4-0.21-0.88-0.21-1.43c0-0.12,0.01-0.26,0.02-0.41c0.01-0.15,0.03-0.31,0.06-0.47
		c0.02-0.16,0.05-0.33,0.08-0.49c0.02-0.17,0.05-0.32,0.08-0.46l1.56-7.8h-1.93c-0.11,0-0.2-0.04-0.26-0.1
		c-0.06-0.07-0.09-0.2-0.09-0.4c0-0.14,0.01-0.31,0.04-0.5c0.03-0.19,0.08-0.37,0.14-0.53c0.06-0.16,0.14-0.3,0.24-0.42
		c0.09-0.12,0.21-0.17,0.34-0.17h1.94l0.67-3.3c0.01-0.07,0.04-0.14,0.1-0.2c0.06-0.06,0.13-0.12,0.24-0.16
		c0.1-0.05,0.24-0.08,0.41-0.11c0.17-0.02,0.38-0.03,0.62-0.03c0.24,0,0.45,0.01,0.61,0.03c0.16,0.02,0.28,0.06,0.37,0.11
		c0.09,0.04,0.14,0.1,0.17,0.16c0.03,0.06,0.03,0.13,0.02,0.2l-0.66,3.3h3.55c0.15,0,0.26,0.05,0.31,0.17
		C561.62,137.82,561.65,137.95,561.65,138.09z"/>
	<path class="st2" d="M574.39,137.83c0,0.11-0.01,0.23-0.03,0.34c-0.02,0.12-0.06,0.23-0.11,0.33c-0.34,0.93-0.71,1.91-1.11,2.92
		c-0.4,1.02-0.87,2.07-1.4,3.18c-0.53,1.1-1.16,2.26-1.87,3.46c-0.71,1.2-1.57,2.46-2.55,3.79l-3.99,5.44
		c-0.06,0.08-0.14,0.15-0.23,0.21c-0.09,0.06-0.21,0.12-0.34,0.17c-0.13,0.04-0.29,0.08-0.48,0.1c-0.19,0.02-0.42,0.03-0.67,0.03
		c-0.28,0-0.51-0.01-0.68-0.04c-0.18-0.03-0.32-0.07-0.41-0.13c-0.09-0.06-0.13-0.15-0.12-0.25c0.01-0.1,0.07-0.23,0.19-0.37
		l3.76-4.83l-2.3-13.55c-0.02-0.12-0.04-0.24-0.04-0.34c-0.01-0.1-0.02-0.19-0.02-0.27c0-0.11,0.02-0.21,0.06-0.28
		c0.03-0.08,0.1-0.14,0.21-0.18c0.1-0.05,0.24-0.08,0.41-0.09c0.17-0.02,0.38-0.03,0.63-0.03c0.28,0,0.49,0.01,0.66,0.03
		c0.15,0.01,0.28,0.04,0.37,0.07c0.09,0.04,0.15,0.09,0.18,0.16c0.03,0.07,0.06,0.16,0.07,0.26l1.8,11.32h0.03
		c0.64-0.89,1.21-1.8,1.73-2.73c0.52-0.93,0.99-1.86,1.42-2.81c0.43-0.95,0.83-1.91,1.2-2.88c0.36-0.97,0.71-1.95,1.02-2.95
		c0.02-0.09,0.06-0.15,0.12-0.21c0.05-0.05,0.14-0.1,0.25-0.15c0.11-0.04,0.25-0.07,0.44-0.08c0.18-0.02,0.42-0.03,0.69-0.03
		c0.46,0,0.77,0.03,0.93,0.09C574.31,137.62,574.39,137.71,574.39,137.83z"/>
	<g>
		<path class="st2" d="M598.54,150.13c-0.03,0.21-0.09,0.38-0.18,0.52c-0.09,0.15-0.2,0.27-0.31,0.36c-0.12,0.09-0.25,0.16-0.38,0.2
			c-0.13,0.04-0.27,0.06-0.4,0.06h-1c-0.27,0-0.49-0.03-0.68-0.09c-0.19-0.06-0.35-0.16-0.49-0.32c-0.14-0.15-0.26-0.34-0.37-0.59
			c-0.1-0.24-0.22-0.54-0.34-0.9l-3.75-10.64c-0.26-0.76-0.51-1.52-0.76-2.27c-0.25-0.75-0.5-1.51-0.73-2.28h-0.03
			c-0.14,0.84-0.28,1.68-0.43,2.51c-0.15,0.84-0.31,1.67-0.48,2.5l-2.31,11.63c-0.02,0.08-0.06,0.15-0.11,0.22
			c-0.06,0.06-0.14,0.11-0.25,0.15c-0.11,0.04-0.24,0.06-0.42,0.09c-0.17,0.02-0.37,0.04-0.61,0.04c-0.24,0-0.43-0.01-0.6-0.04
			c-0.16-0.03-0.28-0.06-0.36-0.09c-0.08-0.04-0.14-0.08-0.16-0.15c-0.03-0.06-0.03-0.13-0.01-0.22l3.67-18.41
			c0.08-0.42,0.25-0.7,0.52-0.88c0.26-0.18,0.52-0.26,0.79-0.26h1.22c0.24,0,0.46,0.02,0.65,0.08c0.18,0.05,0.34,0.14,0.48,0.27
			c0.13,0.13,0.25,0.31,0.36,0.52c0.1,0.21,0.22,0.48,0.34,0.81l3.78,10.78c0.24,0.67,0.47,1.33,0.7,2
			c0.23,0.67,0.46,1.34,0.69,2.02h0.03c0.15-0.84,0.3-1.72,0.47-2.62c0.16-0.9,0.33-1.78,0.5-2.62l2.17-10.81
			c0.02-0.08,0.06-0.15,0.11-0.21c0.05-0.06,0.13-0.11,0.23-0.14c0.1-0.04,0.23-0.07,0.39-0.1c0.16-0.02,0.36-0.03,0.61-0.03
			c0.24,0,0.44,0,0.59,0.03c0.16,0.03,0.28,0.06,0.37,0.1c0.09,0.04,0.15,0.08,0.18,0.14c0.03,0.06,0.04,0.13,0.03,0.21
			L598.54,150.13z"/>
		<path class="st2" d="M615.42,139.8c0,0.71-0.17,1.35-0.5,1.91c-0.33,0.56-0.84,1.05-1.54,1.45c-0.7,0.4-1.59,0.7-2.68,0.92
			c-1.09,0.22-2.4,0.33-3.92,0.33h-1.64c-0.07,0.34-0.12,0.67-0.15,0.98c-0.03,0.32-0.04,0.62-0.04,0.89c0,1.03,0.25,1.81,0.76,2.36
			c0.51,0.55,1.34,0.82,2.48,0.82c0.66,0,1.24-0.05,1.77-0.15c0.52-0.09,0.98-0.2,1.37-0.32c0.38-0.11,0.7-0.22,0.95-0.32
			c0.24-0.1,0.42-0.15,0.51-0.15c0.09,0,0.16,0.04,0.21,0.1c0.05,0.07,0.07,0.16,0.07,0.29c0,0.1-0.01,0.22-0.03,0.37
			c-0.02,0.15-0.05,0.29-0.1,0.44c-0.04,0.15-0.1,0.29-0.16,0.43c-0.06,0.13-0.14,0.25-0.22,0.34c-0.12,0.13-0.34,0.25-0.65,0.36
			c-0.32,0.12-0.68,0.23-1.12,0.33c-0.43,0.1-0.9,0.17-1.42,0.24c-0.51,0.06-1.03,0.09-1.54,0.09c-0.92,0-1.72-0.1-2.4-0.31
			c-0.69-0.21-1.27-0.52-1.72-0.95c-0.46-0.43-0.8-0.96-1.03-1.6c-0.23-0.63-0.34-1.38-0.34-2.25c0-0.67,0.06-1.39,0.19-2.16
			c0.13-0.76,0.33-1.52,0.61-2.27c0.28-0.75,0.63-1.47,1.08-2.16c0.44-0.68,0.97-1.29,1.58-1.81c0.61-0.53,1.32-0.95,2.12-1.27
			c0.8-0.32,1.71-0.48,2.71-0.48c0.87,0,1.6,0.11,2.2,0.33c0.6,0.21,1.09,0.5,1.48,0.83c0.39,0.34,0.67,0.72,0.84,1.13
			C615.33,138.98,615.42,139.4,615.42,139.8z M612.81,140.03c0-0.52-0.2-0.95-0.62-1.27c-0.41-0.33-0.99-0.49-1.76-0.49
			c-0.67,0-1.26,0.12-1.77,0.35c-0.52,0.24-0.97,0.54-1.37,0.93c-0.4,0.39-0.74,0.85-1.02,1.37c-0.28,0.52-0.51,1.06-0.68,1.64h1.57
			c1.08,0,1.98-0.07,2.7-0.2c0.73-0.13,1.31-0.32,1.74-0.55c0.43-0.24,0.74-0.5,0.92-0.81C612.73,140.7,612.81,140.38,612.81,140.03
			z"/>
		<path class="st2" d="M637.52,136.85c0,0.11-0.01,0.23-0.04,0.35c-0.03,0.12-0.06,0.22-0.09,0.3c-0.39,1.12-0.82,2.25-1.29,3.4
			c-0.47,1.15-0.98,2.29-1.54,3.42c-0.56,1.13-1.16,2.25-1.81,3.34c-0.65,1.1-1.34,2.16-2.08,3.17c-0.07,0.12-0.16,0.2-0.27,0.26
			c-0.11,0.06-0.23,0.11-0.37,0.14c-0.14,0.04-0.3,0.06-0.47,0.07c-0.18,0-0.37,0.01-0.59,0.01c-0.27,0-0.49-0.01-0.67-0.03
			c-0.18-0.02-0.32-0.05-0.43-0.09c-0.11-0.04-0.18-0.1-0.23-0.17c-0.05-0.07-0.07-0.16-0.07-0.26l-1.03-10.17l-4.67,10.13
			c-0.05,0.12-0.12,0.21-0.2,0.29c-0.09,0.07-0.19,0.14-0.32,0.18c-0.13,0.04-0.3,0.08-0.5,0.1c-0.2,0.02-0.44,0.03-0.73,0.03
			c-0.29,0-0.54-0.01-0.74-0.03c-0.2-0.02-0.37-0.05-0.5-0.09c-0.13-0.04-0.22-0.1-0.29-0.17c-0.06-0.07-0.09-0.16-0.09-0.26
			l-1.46-13.18c-0.01-0.09-0.02-0.18-0.03-0.27c0-0.09,0-0.16,0-0.22c0-0.13,0.02-0.23,0.06-0.3c0.04-0.08,0.11-0.14,0.21-0.19
			c0.1-0.05,0.23-0.08,0.4-0.09c0.17-0.02,0.39-0.03,0.65-0.03c0.27,0,0.48,0.01,0.64,0.03c0.16,0.01,0.28,0.04,0.37,0.07
			c0.09,0.04,0.15,0.09,0.18,0.15c0.03,0.07,0.05,0.15,0.06,0.24l1.08,11.47v0.14l0.06-0.14l5.26-11.47
			c0.04-0.08,0.09-0.16,0.14-0.22c0.05-0.07,0.13-0.12,0.22-0.16c0.09-0.04,0.22-0.07,0.37-0.08c0.15-0.02,0.35-0.03,0.58-0.03
			c0.24,0,0.44,0.01,0.59,0.03c0.16,0.01,0.28,0.04,0.38,0.07c0.09,0.04,0.16,0.09,0.2,0.15c0.04,0.06,0.07,0.13,0.08,0.21
			l1.14,11.43v0.12l0.08-0.12c0.47-0.74,0.95-1.56,1.42-2.46c0.47-0.9,0.93-1.85,1.37-2.84c0.44-0.99,0.86-2.01,1.26-3.05
			c0.4-1.04,0.75-2.05,1.09-3.05c0.02-0.09,0.06-0.17,0.12-0.24c0.06-0.06,0.15-0.12,0.26-0.15c0.11-0.03,0.25-0.06,0.42-0.07
			c0.17-0.02,0.39-0.03,0.66-0.03c0.25,0,0.45,0.01,0.61,0.03c0.15,0.01,0.28,0.03,0.36,0.06c0.08,0.03,0.14,0.06,0.16,0.1
			C637.5,136.73,637.52,136.78,637.52,136.85z"/>
		<path class="st2" d="M660.8,138.46c0,0.67-0.04,1.36-0.14,2.09c-0.09,0.72-0.24,1.45-0.44,2.17c-0.2,0.73-0.46,1.44-0.78,2.13
			c-0.32,0.7-0.7,1.37-1.16,1.99c-0.46,0.64-0.99,1.21-1.59,1.75c-0.6,0.54-1.29,0.99-2.06,1.39c-0.77,0.39-1.63,0.69-2.58,0.91
			c-0.94,0.21-2.08,0.32-3.4,0.32h-4.43c-0.13,0-0.26-0.02-0.38-0.06c-0.12-0.03-0.22-0.09-0.3-0.17c-0.08-0.08-0.14-0.19-0.17-0.33
			c-0.03-0.15-0.02-0.32,0.03-0.52l3.55-17.79c0.07-0.4,0.23-0.68,0.47-0.84c0.24-0.16,0.51-0.24,0.82-0.24h4.21
			c1.53,0,2.8,0.16,3.81,0.48c1.01,0.32,1.85,0.79,2.52,1.41c0.67,0.62,1.17,1.37,1.51,2.26
			C660.63,136.33,660.8,137.33,660.8,138.46z M658,138.69c0-0.76-0.11-1.46-0.32-2.09c-0.21-0.64-0.54-1.18-0.99-1.64
			c-0.46-0.46-1.03-0.82-1.74-1.08c-0.7-0.26-1.64-0.4-2.8-0.4h-2.78l-3.1,15.53h2.75c1.25,0,2.3-0.15,3.15-0.46
			c0.84-0.3,1.59-0.71,2.23-1.23c0.65-0.52,1.19-1.13,1.65-1.81c0.46-0.69,0.82-1.42,1.11-2.17c0.29-0.76,0.5-1.54,0.63-2.34
			C657.93,140.2,658,139.43,658,138.69z"/>
		<path class="st2" d="M674.4,139.8c0,0.71-0.16,1.35-0.5,1.91c-0.33,0.56-0.84,1.05-1.54,1.45c-0.7,0.4-1.59,0.7-2.68,0.92
			c-1.09,0.22-2.39,0.33-3.91,0.33h-1.64c-0.07,0.34-0.12,0.67-0.14,0.98c-0.03,0.32-0.04,0.62-0.04,0.89
			c0,1.03,0.26,1.81,0.76,2.36c0.51,0.55,1.33,0.82,2.48,0.82c0.66,0,1.25-0.05,1.77-0.15c0.52-0.09,0.98-0.2,1.37-0.32
			c0.39-0.11,0.7-0.22,0.95-0.32c0.25-0.1,0.41-0.15,0.51-0.15c0.09,0,0.16,0.04,0.21,0.1c0.05,0.07,0.07,0.16,0.07,0.29
			c0,0.1-0.01,0.22-0.03,0.37c-0.02,0.15-0.05,0.29-0.09,0.44c-0.04,0.15-0.09,0.29-0.16,0.43c-0.07,0.13-0.14,0.25-0.23,0.34
			c-0.13,0.13-0.34,0.25-0.65,0.36c-0.32,0.12-0.69,0.23-1.12,0.33c-0.43,0.1-0.91,0.17-1.42,0.24c-0.51,0.06-1.03,0.09-1.54,0.09
			c-0.92,0-1.72-0.1-2.4-0.31c-0.69-0.21-1.26-0.52-1.72-0.95c-0.46-0.43-0.8-0.96-1.03-1.6c-0.22-0.63-0.34-1.38-0.34-2.25
			c0-0.67,0.06-1.39,0.19-2.16c0.13-0.76,0.33-1.52,0.61-2.27c0.28-0.75,0.64-1.47,1.08-2.16c0.44-0.68,0.97-1.29,1.58-1.81
			c0.61-0.53,1.32-0.95,2.12-1.27c0.8-0.32,1.71-0.48,2.72-0.48c0.86,0,1.59,0.11,2.2,0.33c0.6,0.21,1.1,0.5,1.48,0.83
			c0.38,0.34,0.66,0.72,0.84,1.13C674.31,138.98,674.4,139.4,674.4,139.8z M671.79,140.03c0-0.52-0.21-0.95-0.62-1.27
			c-0.41-0.33-1-0.49-1.76-0.49c-0.67,0-1.26,0.12-1.77,0.35c-0.51,0.24-0.97,0.54-1.37,0.93c-0.4,0.39-0.74,0.85-1.02,1.37
			c-0.28,0.52-0.51,1.06-0.69,1.64h1.57c1.08,0,1.98-0.07,2.71-0.2c0.73-0.13,1.3-0.32,1.74-0.55c0.44-0.24,0.74-0.5,0.93-0.81
			C671.7,140.7,671.79,140.38,671.79,140.03z"/>
		<path class="st2" d="M677.5,150.84c-0.02,0.08-0.05,0.15-0.11,0.21c-0.05,0.06-0.13,0.1-0.23,0.15c-0.1,0.04-0.24,0.07-0.41,0.09
			c-0.17,0.02-0.38,0.03-0.63,0.03c-0.26,0-0.47-0.01-0.62-0.03c-0.16-0.02-0.28-0.05-0.37-0.09c-0.09-0.04-0.14-0.09-0.17-0.15
			c-0.03-0.05-0.03-0.13-0.01-0.21l4.1-20.6c0.02-0.08,0.05-0.16,0.1-0.22c0.05-0.06,0.12-0.11,0.23-0.15
			c0.11-0.04,0.25-0.07,0.42-0.09c0.17-0.03,0.38-0.04,0.64-0.04c0.25,0,0.45,0.01,0.61,0.04c0.16,0.02,0.28,0.05,0.37,0.09
			c0.08,0.04,0.14,0.09,0.16,0.15c0.02,0.06,0.02,0.14,0.01,0.22L677.5,150.84z"/>
		<path class="st2" d="M692.53,150.84c-0.02,0.08-0.05,0.15-0.11,0.21c-0.05,0.06-0.13,0.1-0.24,0.15
			c-0.11,0.04-0.24,0.07-0.41,0.09c-0.17,0.02-0.38,0.03-0.63,0.03c-0.24,0-0.45-0.01-0.61-0.03c-0.16-0.02-0.28-0.05-0.37-0.09
			c-0.09-0.04-0.14-0.09-0.17-0.15c-0.03-0.05-0.04-0.13-0.02-0.21l1.71-8.58c0.05-0.27,0.1-0.57,0.13-0.9
			c0.03-0.34,0.05-0.63,0.05-0.87c0-0.29-0.03-0.57-0.09-0.82c-0.06-0.25-0.16-0.46-0.3-0.64c-0.14-0.18-0.32-0.33-0.54-0.43
			c-0.22-0.1-0.49-0.16-0.81-0.16c-0.55,0-1.1,0.16-1.67,0.48c-0.57,0.32-1.1,0.76-1.59,1.32c-0.49,0.56-0.93,1.22-1.31,1.98
			c-0.39,0.76-0.66,1.58-0.84,2.45l-1.23,6.15c-0.02,0.08-0.06,0.15-0.11,0.21c-0.05,0.06-0.13,0.1-0.23,0.15
			c-0.1,0.04-0.24,0.07-0.41,0.09c-0.17,0.02-0.38,0.03-0.63,0.03c-0.26,0-0.46-0.01-0.62-0.03c-0.16-0.02-0.28-0.05-0.37-0.09
			c-0.09-0.04-0.14-0.09-0.17-0.15c-0.03-0.05-0.03-0.13-0.01-0.21l4.1-20.6c0.02-0.08,0.05-0.16,0.1-0.22
			c0.05-0.06,0.12-0.11,0.23-0.15c0.11-0.04,0.25-0.07,0.42-0.09c0.17-0.03,0.38-0.04,0.64-0.04c0.24,0,0.45,0.01,0.61,0.04
			c0.16,0.02,0.28,0.05,0.37,0.09c0.08,0.04,0.14,0.09,0.16,0.15c0.02,0.06,0.02,0.14,0.01,0.22l-1.23,6.27
			c-0.05,0.27-0.11,0.54-0.18,0.82c-0.07,0.28-0.15,0.55-0.22,0.83c-0.08,0.27-0.15,0.53-0.23,0.78c-0.08,0.25-0.15,0.46-0.21,0.65
			c0.16-0.36,0.42-0.73,0.77-1.12c0.35-0.38,0.76-0.74,1.23-1.06c0.47-0.33,0.99-0.6,1.57-0.81c0.57-0.22,1.16-0.33,1.76-0.33
			c0.66,0,1.22,0.1,1.68,0.28c0.46,0.19,0.84,0.45,1.13,0.79c0.29,0.33,0.5,0.73,0.64,1.19c0.13,0.46,0.2,0.96,0.2,1.49
			c0,0.37-0.02,0.73-0.06,1.08c-0.04,0.35-0.1,0.7-0.17,1.06L692.53,150.84z"/>
		<path class="st2" d="M698.46,150.84c-0.03,0.08-0.06,0.15-0.11,0.21c-0.05,0.06-0.13,0.1-0.23,0.15c-0.1,0.04-0.24,0.07-0.41,0.09
			c-0.17,0.02-0.38,0.03-0.62,0.03c-0.26,0-0.47-0.01-0.62-0.03c-0.16-0.02-0.28-0.05-0.37-0.09c-0.09-0.04-0.14-0.09-0.17-0.15
			c-0.03-0.05-0.03-0.13-0.01-0.21l2.76-13.88c0.01-0.07,0.04-0.14,0.09-0.2c0.05-0.06,0.13-0.12,0.23-0.15
			c0.1-0.04,0.24-0.07,0.41-0.09c0.17-0.02,0.38-0.03,0.64-0.03c0.25,0,0.45,0.01,0.61,0.03c0.16,0.02,0.28,0.05,0.37,0.09
			c0.09,0.04,0.14,0.09,0.17,0.15c0.02,0.06,0.03,0.13,0.02,0.2L698.46,150.84z M702.45,132.29c-0.05,0.28-0.12,0.53-0.2,0.73
			c-0.09,0.19-0.2,0.35-0.35,0.47c-0.14,0.12-0.33,0.19-0.54,0.25c-0.22,0.05-0.48,0.07-0.79,0.07c-0.3,0-0.55-0.02-0.74-0.07
			c-0.19-0.06-0.34-0.14-0.43-0.25c-0.09-0.12-0.15-0.28-0.15-0.47c-0.01-0.19,0.01-0.44,0.06-0.73c0.06-0.29,0.14-0.52,0.23-0.71
			c0.09-0.19,0.21-0.35,0.35-0.48c0.14-0.13,0.32-0.22,0.53-0.26c0.22-0.05,0.48-0.07,0.79-0.07c0.3,0,0.54,0.02,0.73,0.07
			c0.19,0.05,0.33,0.14,0.43,0.26c0.1,0.13,0.15,0.29,0.16,0.48C702.54,131.77,702.51,132.01,702.45,132.29z"/>
		<path class="st2" d="M706.29,155.91c1.12-1.68,2.07-3.36,2.85-5.03c0.78-1.67,1.42-3.31,1.9-4.91c0.49-1.6,0.85-3.15,1.07-4.64
			c0.23-1.49,0.34-2.91,0.34-4.24c0-0.55-0.02-1.13-0.05-1.72c-0.04-0.6-0.09-1.21-0.15-1.82c-0.07-0.61-0.16-1.22-0.26-1.81
			c-0.11-0.59-0.24-1.16-0.38-1.69c-0.03-0.11-0.04-0.21-0.03-0.3c0.01-0.09,0.05-0.16,0.11-0.23c0.07-0.06,0.18-0.1,0.33-0.13
			c0.15-0.03,0.36-0.04,0.62-0.04c0.18,0,0.34,0.01,0.47,0.02c0.13,0.02,0.23,0.04,0.32,0.06c0.09,0.03,0.15,0.06,0.2,0.11
			c0.04,0.04,0.07,0.09,0.09,0.15c0.38,1.17,0.69,2.43,0.92,3.75c0.24,1.33,0.36,2.78,0.36,4.33c0,1.32-0.1,2.7-0.31,4.12
			c-0.22,1.43-0.57,2.9-1.07,4.43c-0.5,1.54-1.15,3.12-1.96,4.76c-0.81,1.64-1.81,3.33-3.02,5.07c-0.05,0.06-0.11,0.12-0.17,0.17
			c-0.07,0.05-0.15,0.1-0.26,0.13c-0.11,0.04-0.25,0.06-0.41,0.08c-0.16,0.01-0.36,0.02-0.6,0.02c-0.24,0-0.43-0.01-0.57-0.05
			c-0.14-0.03-0.25-0.07-0.32-0.12c-0.07-0.05-0.11-0.12-0.11-0.19C706.2,156.11,706.23,156.01,706.29,155.91z"/>
	</g>
	<g>
		<path class="st2" d="M573.07,155.9c0.7-1.87,1.55-5.26,1.9-7.57l3.11-0.32c-0.73,2.69-2.12,6.21-3.01,7.7L573.07,155.9z"/>
	</g>
</g>
</svg>
